<svg xmlns="http://www.w3.org/2000/svg" xmlns:xlink="http://www.w3.org/1999/xlink" version="1.1" width="4600" height="1311" style="width: 4600px; height: 1311px; background: #ffffff" viewBox="0 0 4600 1311"><style id="v-3" type="text/css">        .joint-element .scalable * {            vector-effect: non-scaling-stroke;        }    </style><defs joint-selector="defs"><marker id="v-21867269473" orient="auto" overflow="visible" markerUnits="userSpaceOnUse"><path id="v-168" stroke="#476177" fill="#476177" transform="rotate(180)" d="M 20 -10 0 0 20 10 Z"></path></marker><marker id="v-2-985808639" orient="auto" overflow="visible" markerUnits="userSpaceOnUse"><path id="v-188" stroke="#6d817a" fill="#6d817a" transform="rotate(180)" d="M 20 -10 0 0 20 10 Z"></path></marker></defs><g joint-selector="layers"  transform="matrix(1,0,0,1,0,0)"><g  style="pointer-events: none;"></g><g ></g><g  style="user-select: none;"><!--z-index:0--><!--z-index:1--><!--z-index:2--><!--z-index:3--><!--z-index:4--><!--z-index:5--><!--z-index:6--><!--z-index:7--><!--z-index:8--><!--z-index:9--><!--z-index:10--><!--z-index:11--><!--z-index:12--><!--z-index:13--><!--z-index:14--><!--z-index:15--><!--z-index:16--><!--z-index:17--><g   id="j_152"  transform="translate(20,1267)"><g id="v-2109"><text  id="v-2110" font-size="24px" xml:space="preserve" y="0.8em" font-weight="normal" text-anchor="start" fill="#444444" pointer-events="none" display="block" font-family="Tahoma, Verdana, Helvetica, Arial"><tspan dy="0" >Tuesday, September 15, 2026 at 8:53 PM Coordinated Universal Time</tspan></text></g></g><!--z-index:18--><g   id="j_151"  transform="translate(20,1233)"><g id="v-2107"><text  id="v-2108" font-size="24px" xml:space="preserve" y="0.8em" font-weight="normal" text-anchor="start" fill="#444444" pointer-events="none" display="block" font-family="Tahoma, Verdana, Helvetica, Arial"><tspan dy="0" >System Context - private Besu network</tspan></text></g></g><!--z-index:19--><g   id="j_150"  transform="translate(20,1187)"><g id="v-2105"><text  id="v-2106" font-size="36px" xml:space="preserve" y="0.8em" font-weight="normal" text-anchor="start" fill="#444444" pointer-events="none" display="block" font-family="Tahoma, Verdana, Helvetica, Arial"><tspan dy="0" >System Context - private Besu network</tspan></text></g></g><!--z-index:20--><g   id="j_153"  transform="translate(1159,413)" style=""><g  id="v-2117" style="opacity: 1;"><rect  id="v-2118" rx="1" ry="1" stroke-width="2" pointer-events="visiblePainted" fill="#176b87" stroke="#57718a" stroke-dasharray="" width="360" height="220" style="fill: rgb(23, 107, 135); stroke: rgb(87, 113, 138);"></rect><text  id="v-2119" font-size="30.799999999999997px" xml:space="preserve" y="38" font-weight="bold" text-anchor="middle" pointer-events="visible" font-family="Tahoma, Verdana, Helvetica, Arial" fill="#ffffff" dominant-baseline="hanging" transform="matrix(1,0,0,1,180,0)" style="fill: rgb(255, 255, 255);"><tspan dy="0" >Member A FireFly</tspan></text><text  id="v-2120" font-size="15.399999999999999px" xml:space="preserve" y="76.8" text-anchor="middle" font-family="Tahoma, Verdana, Helvetica, Arial" fill="#ffffff" dominant-baseline="hanging" transform="matrix(1,0,0,1,180,0)" style="display: block; fill: rgb(255, 255, 255);"><tspan dy="0" >[Software System]</tspan></text><text  id="v-2121" font-size="22px" xml:space="preserve" y="107.19999999999999" text-anchor="middle" font-family="Tahoma, Verdana, Helvetica, Arial" fill="#ffffff" dominant-baseline="hanging" transform="matrix(1,0,0,1,180,0)" style="display: block; fill: rgb(255, 255, 255);"><tspan dy="0" >An independently identified</tspan><tspan dy="1.2em" x="0" >supernode with private</tspan><tspan dy="1.2em" x="0" >member state.</tspan></text><g  id="v-2122" color="#ffffff" transform="matrix(1,0,0,1,152.5,188)" display="none" style="fill: rgb(255, 255, 255);"><g  transform="translate(5 0)"><svg xmlns="http://www.w3.org/2000/svg" width="20" height="20" fill="currentColor" viewBox="0 0 16 16"><path fill-rule="evenodd" d="M6.5 12a5.5 5.5 0 1 0 0-11 5.5 5.5 0 0 0 0 11zM13 6.5a6.5 6.5 0 1 1-13 0 6.5 6.5 0 0 1 13 0z"></path><path d="M10.344 11.742c.03.04.062.078.098.115l3.85 3.85a1 1 0 0 0 1.415-1.414l-3.85-3.85a1.007 1.007 0 0 0-.115-.1 6.538 6.538 0 0 1-1.398 1.4z"></path><path fill-rule="evenodd" d="M6.5 3a.5.5 0 0 1 .5.5V6h2.5a.5.5 0 0 1 0 1H7v2.5a.5.5 0 0 1-1 0V7H3.5a.5.5 0 0 1 0-1H6V3.5a.5.5 0 0 1 .5-.5z"></path></svg></g><g ></g><g ></g><g  transform="translate(30 0)"><svg xmlns="http://www.w3.org/2000/svg" width="20" height="20" fill="currentColor" viewBox="0 0 16 16"><path d="M6.354 5.5H4a3 3 0 0 0 0 6h3a3 3 0 0 0 2.83-4H9c-.086 0-.17.01-.25.031A2 2 0 0 1 7 10.5H4a2 2 0 1 1 0-4h1.535c.218-.376.495-.714.82-1z"></path><path d="M9 5.5a3 3 0 0 0-2.83 4h1.098A2 2 0 0 1 9 6.5h3a2 2 0 1 1 0 4h-1.535a4.02 4.02 0 0 1-.82 1H12a3 3 0 1 0 0-6H9z"></path></svg></g></g><image  id="v-2123"></image></g></g><!--z-index:21--><g   id="j_154"  transform="translate(2119,305)" style=""><g  id="v-2130" style="opacity: 1;"><rect  id="v-2131" rx="1" ry="1" stroke-width="2" pointer-events="visiblePainted" fill="#176b87" stroke="#57718a" stroke-dasharray="" width="360" height="220" style="fill: rgb(23, 107, 135); stroke: rgb(87, 113, 138);"></rect><text  id="v-2132" font-size="30.799999999999997px" xml:space="preserve" y="38" font-weight="bold" text-anchor="middle" pointer-events="visible" font-family="Tahoma, Verdana, Helvetica, Arial" fill="#ffffff" dominant-baseline="hanging" transform="matrix(1,0,0,1,180,0)" style="fill: rgb(255, 255, 255);"><tspan dy="0" >Member B FireFly</tspan></text><text  id="v-2133" font-size="15.399999999999999px" xml:space="preserve" y="76.8" text-anchor="middle" font-family="Tahoma, Verdana, Helvetica, Arial" fill="#ffffff" dominant-baseline="hanging" transform="matrix(1,0,0,1,180,0)" style="display: block; fill: rgb(255, 255, 255);"><tspan dy="0" >[Software System]</tspan></text><text  id="v-2134" font-size="22px" xml:space="preserve" y="107.19999999999999" text-anchor="middle" font-family="Tahoma, Verdana, Helvetica, Arial" fill="#ffffff" dominant-baseline="hanging" transform="matrix(1,0,0,1,180,0)" style="display: block; fill: rgb(255, 255, 255);"><tspan dy="0" >An independently identified</tspan><tspan dy="1.2em" x="0" >supernode with private</tspan><tspan dy="1.2em" x="0" >member state.</tspan></text><g  id="v-2135" color="#ffffff" transform="matrix(1,0,0,1,152.5,188)" display="none" style="fill: rgb(255, 255, 255);"><g  transform="translate(5 0)"><svg xmlns="http://www.w3.org/2000/svg" width="20" height="20" fill="currentColor" viewBox="0 0 16 16"><path fill-rule="evenodd" d="M6.5 12a5.5 5.5 0 1 0 0-11 5.5 5.5 0 0 0 0 11zM13 6.5a6.5 6.5 0 1 1-13 0 6.5 6.5 0 0 1 13 0z"></path><path d="M10.344 11.742c.03.04.062.078.098.115l3.85 3.85a1 1 0 0 0 1.415-1.414l-3.85-3.85a1.007 1.007 0 0 0-.115-.1 6.538 6.538 0 0 1-1.398 1.4z"></path><path fill-rule="evenodd" d="M6.5 3a.5.5 0 0 1 .5.5V6h2.5a.5.5 0 0 1 0 1H7v2.5a.5.5 0 0 1-1 0V7H3.5a.5.5 0 0 1 0-1H6V3.5a.5.5 0 0 1 .5-.5z"></path></svg></g><g ></g><g ></g><g  transform="translate(30 0)"><svg xmlns="http://www.w3.org/2000/svg" width="20" height="20" fill="currentColor" viewBox="0 0 16 16"><path d="M6.354 5.5H4a3 3 0 0 0 0 6h3a3 3 0 0 0 2.83-4H9c-.086 0-.17.01-.25.031A2 2 0 0 1 7 10.5H4a2 2 0 1 1 0-4h1.535c.218-.376.495-.714.82-1z"></path><path d="M9 5.5a3 3 0 0 0-2.83 4h1.098A2 2 0 0 1 9 6.5h3a2 2 0 1 1 0 4h-1.535a4.02 4.02 0 0 1-.82 1H12a3 3 0 1 0 0-6H9z"></path></svg></g></g><image  id="v-2136"></image></g></g><!--z-index:22--><g   id="j_155"  transform="translate(3079,648)" style=""><g  id="v-2143" style="opacity: 1;"><rect  id="v-2144" rx="1" ry="1" stroke-width="2" pointer-events="visiblePainted" fill="#176b87" stroke="#57718a" stroke-dasharray="" width="360" height="220" style="fill: rgb(23, 107, 135); stroke: rgb(87, 113, 138);"></rect><text  id="v-2145" font-size="30.799999999999997px" xml:space="preserve" y="38" font-weight="bold" text-anchor="middle" pointer-events="visible" font-family="Tahoma, Verdana, Helvetica, Arial" fill="#ffffff" dominant-baseline="hanging" transform="matrix(1,0,0,1,180,0)" style="fill: rgb(255, 255, 255);"><tspan dy="0" >Member C FireFly</tspan></text><text  id="v-2146" font-size="15.399999999999999px" xml:space="preserve" y="76.8" text-anchor="middle" font-family="Tahoma, Verdana, Helvetica, Arial" fill="#ffffff" dominant-baseline="hanging" transform="matrix(1,0,0,1,180,0)" style="display: block; fill: rgb(255, 255, 255);"><tspan dy="0" >[Software System]</tspan></text><text  id="v-2147" font-size="22px" xml:space="preserve" y="107.19999999999999" text-anchor="middle" font-family="Tahoma, Verdana, Helvetica, Arial" fill="#ffffff" dominant-baseline="hanging" transform="matrix(1,0,0,1,180,0)" style="display: block; fill: rgb(255, 255, 255);"><tspan dy="0" >An independently identified</tspan><tspan dy="1.2em" x="0" >supernode with private</tspan><tspan dy="1.2em" x="0" >member state.</tspan></text><g  id="v-2148" color="#ffffff" transform="matrix(1,0,0,1,152.5,188)" display="none" style="fill: rgb(255, 255, 255);"><g  transform="translate(5 0)"><svg xmlns="http://www.w3.org/2000/svg" width="20" height="20" fill="currentColor" viewBox="0 0 16 16"><path fill-rule="evenodd" d="M6.5 12a5.5 5.5 0 1 0 0-11 5.5 5.5 0 0 0 0 11zM13 6.5a6.5 6.5 0 1 1-13 0 6.5 6.5 0 0 1 13 0z"></path><path d="M10.344 11.742c.03.04.062.078.098.115l3.85 3.85a1 1 0 0 0 1.415-1.414l-3.85-3.85a1.007 1.007 0 0 0-.115-.1 6.538 6.538 0 0 1-1.398 1.4z"></path><path fill-rule="evenodd" d="M6.5 3a.5.5 0 0 1 .5.5V6h2.5a.5.5 0 0 1 0 1H7v2.5a.5.5 0 0 1-1 0V7H3.5a.5.5 0 0 1 0-1H6V3.5a.5.5 0 0 1 .5-.5z"></path></svg></g><g ></g><g ></g><g  transform="translate(30 0)"><svg xmlns="http://www.w3.org/2000/svg" width="20" height="20" fill="currentColor" viewBox="0 0 16 16"><path d="M6.354 5.5H4a3 3 0 0 0 0 6h3a3 3 0 0 0 2.83-4H9c-.086 0-.17.01-.25.031A2 2 0 0 1 7 10.5H4a2 2 0 1 1 0-4h1.535c.218-.376.495-.714.82-1z"></path><path d="M9 5.5a3 3 0 0 0-2.83 4h1.098A2 2 0 0 1 9 6.5h3a2 2 0 1 1 0 4h-1.535a4.02 4.02 0 0 1-.82 1H12a3 3 0 1 0 0-6H9z"></path></svg></g></g><image  id="v-2149"></image></g></g><!--z-index:23--><g   id="j_156"  transform="translate(4039,703)" style=""><g  id="v-2156" style="opacity: 1;"><rect  id="v-2157" rx="1" ry="1" stroke-width="2" pointer-events="visiblePainted" fill="#efe4c8" stroke="#9b782e" stroke-dasharray="" width="360" height="220" style="fill: rgb(239, 228, 200); stroke: rgb(155, 120, 46);"></rect><text  id="v-2158" font-size="30.799999999999997px" xml:space="preserve" y="38" font-weight="bold" text-anchor="middle" pointer-events="visible" font-family="Tahoma, Verdana, Helvetica, Arial" fill="#122c43" dominant-baseline="hanging" transform="matrix(1,0,0,1,180,0)" style="fill: rgb(18, 44, 67);"><tspan dy="0" >Private Besu network</tspan></text><text  id="v-2159" font-size="15.399999999999999px" xml:space="preserve" y="76.8" text-anchor="middle" font-family="Tahoma, Verdana, Helvetica, Arial" fill="#122c43" dominant-baseline="hanging" transform="matrix(1,0,0,1,180,0)" style="display: block; fill: rgb(18, 44, 67);"><tspan dy="0" >[Software System]</tspan></text><text  id="v-2160" font-size="22px" xml:space="preserve" y="107.19999999999999" text-anchor="middle" font-family="Tahoma, Verdana, Helvetica, Arial" fill="#122c43" dominant-baseline="hanging" transform="matrix(1,0,0,1,180,0)" style="display: block; fill: rgb(18, 44, 67);"><tspan dy="0" >Permissioned Ethereum</tspan><tspan dy="1.2em" x="0" >network with QBFT validators,</tspan><tspan dy="1.2em" x="0" >private RPC and contracts.</tspan></text><g  id="v-2161" color="#122c43" transform="matrix(1,0,0,1,152.5,188)" display="none" style="fill: rgb(18, 44, 67);"><g  transform="translate(5 0)"><svg xmlns="http://www.w3.org/2000/svg" width="20" height="20" fill="currentColor" viewBox="0 0 16 16"><path fill-rule="evenodd" d="M6.5 12a5.5 5.5 0 1 0 0-11 5.5 5.5 0 0 0 0 11zM13 6.5a6.5 6.5 0 1 1-13 0 6.5 6.5 0 0 1 13 0z"></path><path d="M10.344 11.742c.03.04.062.078.098.115l3.85 3.85a1 1 0 0 0 1.415-1.414l-3.85-3.85a1.007 1.007 0 0 0-.115-.1 6.538 6.538 0 0 1-1.398 1.4z"></path><path fill-rule="evenodd" d="M6.5 3a.5.5 0 0 1 .5.5V6h2.5a.5.5 0 0 1 0 1H7v2.5a.5.5 0 0 1-1 0V7H3.5a.5.5 0 0 1 0-1H6V3.5a.5.5 0 0 1 .5-.5z"></path></svg></g><g ></g><g ></g><g  transform="translate(30 0)"><svg xmlns="http://www.w3.org/2000/svg" width="20" height="20" fill="currentColor" viewBox="0 0 16 16"><path d="M6.354 5.5H4a3 3 0 0 0 0 6h3a3 3 0 0 0 2.83-4H9c-.086 0-.17.01-.25.031A2 2 0 0 1 7 10.5H4a2 2 0 1 1 0-4h1.535c.218-.376.495-.714.82-1z"></path><path d="M9 5.5a3 3 0 0 0-2.83 4h1.098A2 2 0 0 1 9 6.5h3a2 2 0 1 1 0 4h-1.535a4.02 4.02 0 0 1-.82 1H12a3 3 0 1 0 0-6H9z"></path></svg></g></g><image  id="v-2162"></image></g></g><!--z-index:24--><g   id="j_157"  transform="translate(199,755)" style=""><g  id="v-2169" style="opacity: 1;"><rect  id="v-2170" rx="1" ry="1" stroke-width="2" pointer-events="visiblePainted" fill="#176b87" stroke="#57718a" stroke-dasharray="" width="360" height="220" style="fill: rgb(23, 107, 135); stroke: rgb(87, 113, 138);"></rect><text  id="v-2171" font-size="30.799999999999997px" xml:space="preserve" y="38" font-weight="bold" text-anchor="middle" pointer-events="visible" font-family="Tahoma, Verdana, Helvetica, Arial" fill="#ffffff" dominant-baseline="hanging" transform="matrix(1,0,0,1,180,0)" style="fill: rgb(255, 255, 255);"><tspan dy="0" >Platform operations</tspan></text><text  id="v-2172" font-size="15.399999999999999px" xml:space="preserve" y="76.8" text-anchor="middle" font-family="Tahoma, Verdana, Helvetica, Arial" fill="#ffffff" dominant-baseline="hanging" transform="matrix(1,0,0,1,180,0)" style="display: block; fill: rgb(255, 255, 255);"><tspan dy="0" >[Software System]</tspan></text><text  id="v-2173" font-size="22px" xml:space="preserve" y="107.19999999999999" text-anchor="middle" font-family="Tahoma, Verdana, Helvetica, Arial" fill="#ffffff" dominant-baseline="hanging" transform="matrix(1,0,0,1,180,0)" style="display: block; fill: rgb(255, 255, 255);"><tspan dy="0" >Reference ingress, database</tspan><tspan dy="1.2em" x="0" >operations and metrics on</tspan><tspan dy="1.2em" x="0" >AKS.</tspan></text><g  id="v-2174" color="#ffffff" transform="matrix(1,0,0,1,152.5,188)" display="none" style="fill: rgb(255, 255, 255);"><g  transform="translate(5 0)"><svg xmlns="http://www.w3.org/2000/svg" width="20" height="20" fill="currentColor" viewBox="0 0 16 16"><path fill-rule="evenodd" d="M6.5 12a5.5 5.5 0 1 0 0-11 5.5 5.5 0 0 0 0 11zM13 6.5a6.5 6.5 0 1 1-13 0 6.5 6.5 0 0 1 13 0z"></path><path d="M10.344 11.742c.03.04.062.078.098.115l3.85 3.85a1 1 0 0 0 1.415-1.414l-3.85-3.85a1.007 1.007 0 0 0-.115-.1 6.538 6.538 0 0 1-1.398 1.4z"></path><path fill-rule="evenodd" d="M6.5 3a.5.5 0 0 1 .5.5V6h2.5a.5.5 0 0 1 0 1H7v2.5a.5.5 0 0 1-1 0V7H3.5a.5.5 0 0 1 0-1H6V3.5a.5.5 0 0 1 .5-.5z"></path></svg></g><g ></g><g ></g><g  transform="translate(30 0)"><svg xmlns="http://www.w3.org/2000/svg" width="20" height="20" fill="currentColor" viewBox="0 0 16 16"><path d="M6.354 5.5H4a3 3 0 0 0 0 6h3a3 3 0 0 0 2.83-4H9c-.086 0-.17.01-.25.031A2 2 0 0 1 7 10.5H4a2 2 0 1 1 0-4h1.535c.218-.376.495-.714.82-1z"></path><path d="M9 5.5a3 3 0 0 0-2.83 4h1.098A2 2 0 0 1 9 6.5h3a2 2 0 1 1 0 4h-1.535a4.02 4.02 0 0 1-.82 1H12a3 3 0 1 0 0-6H9z"></path></svg></g></g><image  id="v-2175"></image></g></g><!--z-index:25--><g   id="j_158"  style="opacity: 1;"><path fill="none" cursor="pointer" stroke="transparent" stroke-linecap="round" joint-selector="wrapper" id="v-2193" stroke-width="10" stroke-linejoin="round" d="M 1339 413 L 1339 191 C 1339 184.26666666666665 1342.3333333333333 180.9333333333333 1349 181 L 1809 181 C 1815.6666666666665 180.9333333333333 1822.333333333333 180.9333333333333 1829 181 L 3729 181 C 3735.6666666666665 180.9333333333333 3742.333333333333 180.9333333333333 3749 181 L 4209 181 C 4215.666666666666 180.9333333333333 4219 184.26666666666665 4219 191 L 4219 703"></path><path fill="none" pointer-events="none" joint-selector="line" id="v-2192" stroke="#476177" stroke-width="2" stroke-linejoin="round" stroke-dasharray="" d="M 1339 413 L 1339 191 C 1339 184.26666666666665 1342.3333333333333 180.9333333333333 1349 181 L 1809 181 C 1815.6666666666665 180.9333333333333 1822.333333333333 180.9333333333333 1829 181 L 3729 181 C 3735.6666666666665 180.9333333333333 3742.333333333333 180.9333333333333 3749 181 L 4209 181 C 4215.666666666666 180.9333333333333 4219 184.26666666666665 4219 191 L 4219 703" marker-end="url(#v-21867269473)"></path><g id="v-2182" ><g id="v-2183"  label-idx="0" cursor="move" transform="matrix(1,0,0,1,2767.98583984375,169.6999969482422)" style="cursor: default;"><rect joint-selector="rect" id="v-2187" fill="#ffffff" rx="3" ry="3" x="-93.90190887451172" y="-32.86666488647461" width="188.90345764160156" height="62.64444351196289" pointer-events="none"  style="display: block;"></rect><text joint-selector="text" id="v-2186" font-size="18px" xml:space="preserve" fill="#476177" text-anchor="middle" pointer-events="none" font-family="Tahoma, Verdana, Helvetica, Arial" font-weight="normal"  style="display: block;"><tspan dy="-0.8999999999999999em" >Submits transactions</tspan><tspan dy="1.2em" x="0" >and consumes finalized</tspan><tspan dy="1.2em" x="0" >events</tspan></text></g><g id="v-2184"  label-idx="1" cursor="move" transform="matrix(1,0,0,1,2767.98583984375,216.60000610351562)" style="cursor: default;"><rect joint-selector="rect" id="v-2189" fill="#ffffff" rx="3" ry="3" x="-90.10416412353516" y="-7.331110000610352" width="180.2083282470703" height="13.888888359069824"  pointer-events="none" style="display: block;"></rect><text joint-selector="text" id="v-2188" font-size="12.6px" xml:space="preserve" fill="#476177" text-anchor="middle" pointer-events="none" font-family="Tahoma, Verdana, Helvetica, Arial" font-weight="normal"  style="display: block;"><tspan dy="0.3em" >[Ethereum JSON-RPC + events]</tspan></text></g><g id="v-2185"  label-idx="2" cursor="move" transform="matrix(1,0,0,1,2914,222.89999389648438)" style="cursor: default;"><rect joint-selector="rect" id="v-2191" fill="#ffffff" rx="3" ry="3" x="0" y="0" width="0" height="0"  display="none"></rect><text joint-selector="text" id="v-2190" fill="#000000" font-size="14" text-anchor="middle" text-vertical-anchor="middle" pointer-events="none"></text></g></g></g><!--z-index:26--><g   id="j_159"  style="opacity: 1;"><path fill="none" cursor="pointer" stroke="transparent" stroke-linecap="round" joint-selector="wrapper" id="v-2208" stroke-width="10" stroke-linejoin="round" d="M 1519 523 L 1809 523 C 1815.6666666666665 523 1818.9999999999998 519.6666666666666 1819 513 L 1819 426 C 1818.9999999999998 419.26666666666665 1818.9999999999998 415.59999999999997 1819 415 L 1819 415 C 1818.9999999999998 414.99999999999994 1822.333333333333 414.99999999999994 1829 415 L 2119 415"></path><path fill="none" pointer-events="none" joint-selector="line" id="v-2207" stroke="#476177" stroke-width="2" stroke-linejoin="round" stroke-dasharray="" d="M 1519 523 L 1809 523 C 1815.6666666666665 523 1818.9999999999998 519.6666666666666 1819 513 L 1819 426 C 1818.9999999999998 419.26666666666665 1818.9999999999998 415.59999999999997 1819 415 L 1819 415 C 1818.9999999999998 414.99999999999994 1822.333333333333 414.99999999999994 1829 415 L 2119 415" marker-end="url(#v-21867269473)"></path><g id="v-2197" ><g id="v-2198"  label-idx="0" cursor="move" transform="matrix(1,0,0,1,1819,451.5191345214844)" style="cursor: default;"><rect joint-selector="rect" id="v-2202" fill="#ffffff" rx="3" ry="3" x="-93.90190887451172" y="-32.86666488647461" width="188.9122314453125" height="62.64444351196289" pointer-events="none"  style="display: block;"></rect><text joint-selector="text" id="v-2201" font-size="18px" xml:space="preserve" fill="#476177" text-anchor="middle" pointer-events="none" font-family="Tahoma, Verdana, Helvetica, Arial" font-weight="normal"  style="display: block;"><tspan dy="-0.8999999999999999em" >Exchanges private data</tspan><tspan dy="1.2em" x="0" >and shared content</tspan><tspan dy="1.2em" x="0" >references</tspan></text></g><g id="v-2199"  label-idx="1" cursor="move" transform="matrix(1,0,0,1,1819,498.41912841796875)" style="cursor: default;"><rect joint-selector="rect" id="v-2204" fill="#ffffff" rx="3" ry="3" x="-41.31944274902344" y="-7.331110000610352" width="82.63888549804688" height="13.888888359069824"  pointer-events="none" style="display: block;"></rect><text joint-selector="text" id="v-2203" font-size="12.6px" xml:space="preserve" fill="#476177" text-anchor="middle" pointer-events="none" font-family="Tahoma, Verdana, Helvetica, Arial" font-weight="normal"  style="display: block;"><tspan dy="0.3em" >[mTLS + IPFS]</tspan></text></g><g id="v-2200"  label-idx="2" cursor="move" transform="matrix(1,0,0,1,1809,509.01531982421875)" style="cursor: default;"><rect joint-selector="rect" id="v-2206" fill="#ffffff" rx="3" ry="3" x="0" y="0" width="0" height="0"  display="none"></rect><text joint-selector="text" id="v-2205" fill="#000000" font-size="14" text-anchor="middle" text-vertical-anchor="middle" pointer-events="none"></text></g></g></g><!--z-index:27--><g   id="j_160"  style="opacity: 1;"><path fill="none" cursor="pointer" stroke="transparent" stroke-linecap="round" joint-selector="wrapper" id="v-2223" stroke-width="10" stroke-linejoin="round" d="M 1339 633 L 1339 729 C 1339 735.4999999999999 1342.3333333333333 738.8333333333333 1349 739 L 1809 739 C 1815.6666666666665 738.8333333333333 1822.333333333333 738.8333333333333 1829 739 L 2769 739 C 2775.6666666666665 738.8333333333333 2779 741.8333333333333 2779 748 L 2779 748 C 2779 754.6666666666666 2782.333333333333 758 2789 758 L 3079 758"></path><path fill="none" pointer-events="none" joint-selector="line" id="v-2222" stroke="#476177" stroke-width="2" stroke-linejoin="round" stroke-dasharray="" d="M 1339 633 L 1339 729 C 1339 735.4999999999999 1342.3333333333333 738.8333333333333 1349 739 L 1809 739 C 1815.6666666666665 738.8333333333333 1822.333333333333 738.8333333333333 1829 739 L 2769 739 C 2775.6666666666665 738.8333333333333 2779 741.8333333333333 2779 748 L 2779 748 C 2779 754.6666666666666 2782.333333333333 758 2789 758 L 3079 758" marker-end="url(#v-21867269473)"></path><g id="v-2212" ><g id="v-2213"  label-idx="0" cursor="move" transform="matrix(1,0,0,1,2180.489013671875,727.7000122070312)" style="cursor: default;"><rect joint-selector="rect" id="v-2217" fill="#ffffff" rx="3" ry="3" x="-93.90190887451172" y="-32.86666488647461" width="188.9122314453125" height="62.64444351196289" pointer-events="none"  style="display: block;"></rect><text joint-selector="text" id="v-2216" font-size="18px" xml:space="preserve" fill="#476177" text-anchor="middle" pointer-events="none" font-family="Tahoma, Verdana, Helvetica, Arial" font-weight="normal"  style="display: block;"><tspan dy="-0.8999999999999999em" >Exchanges private data</tspan><tspan dy="1.2em" x="0" >and shared content</tspan><tspan dy="1.2em" x="0" >references</tspan></text></g><g id="v-2214"  label-idx="1" cursor="move" transform="matrix(1,0,0,1,2180.489013671875,774.5999755859375)" style="cursor: default;"><rect joint-selector="rect" id="v-2219" fill="#ffffff" rx="3" ry="3" x="-41.31944274902344" y="-7.331110000610352" width="82.63888549804688" height="13.888888359069824"  pointer-events="none" style="display: block;"></rect><text joint-selector="text" id="v-2218" font-size="12.6px" xml:space="preserve" fill="#476177" text-anchor="middle" pointer-events="none" font-family="Tahoma, Verdana, Helvetica, Arial" font-weight="normal"  style="display: block;"><tspan dy="0.3em" >[mTLS + IPFS]</tspan></text></g><g id="v-2215"  label-idx="2" cursor="move" transform="matrix(1,0,0,1,2153.8076171875,780.9000244140625)" style="cursor: default;"><rect joint-selector="rect" id="v-2221" fill="#ffffff" rx="3" ry="3" x="-4.547473508864641e-13" y="0" width="0" height="0"  display="none"></rect><text joint-selector="text" id="v-2220" fill="#000000" font-size="14" text-anchor="middle" text-vertical-anchor="middle" pointer-events="none"></text></g></g></g><!--z-index:28--><g   id="j_161"  style="opacity: 1;"><path fill="none" cursor="pointer" stroke="transparent" stroke-linecap="round" joint-selector="wrapper" id="v-2241" stroke-width="10" stroke-linejoin="round" d="M 2479 415 L 2769 415 C 2775.6666666666665 414.99999999999994 2779 411.66666666666663 2779 405 L 2779 354 C 2779 347.5666666666666 2782.333333333333 344.2333333333333 2789 344 L 3729 344 C 3735.6666666666665 344.2333333333333 3742.333333333333 344.2333333333333 3749 344 L 4209 344 C 4215.666666666666 344.2333333333333 4219 347.5666666666666 4219 354 L 4219 703"></path><path fill="none" pointer-events="none" joint-selector="line" id="v-2240" stroke="#476177" stroke-width="2" stroke-linejoin="round" stroke-dasharray="" d="M 2479 415 L 2769 415 C 2775.6666666666665 414.99999999999994 2779 411.66666666666663 2779 405 L 2779 354 C 2779 347.5666666666666 2782.333333333333 344.2333333333333 2789 344 L 3729 344 C 3735.6666666666665 344.2333333333333 3742.333333333333 344.2333333333333 3749 344 L 4209 344 C 4215.666666666666 344.2333333333333 4219 347.5666666666666 4219 354 L 4219 703" marker-end="url(#v-21867269473)"></path><g id="v-2230" ><g id="v-2231"  label-idx="0" cursor="move" transform="matrix(1,0,0,1,3366.93359375,332.70001220703125)" style="cursor: default;"><rect joint-selector="rect" id="v-2235" fill="#ffffff" rx="3" ry="3" x="-93.90190887451172" y="-32.86666488647461" width="188.90345764160156" height="62.64444351196289" pointer-events="none"  style="display: block;"></rect><text joint-selector="text" id="v-2234" font-size="18px" xml:space="preserve" fill="#476177" text-anchor="middle" pointer-events="none" font-family="Tahoma, Verdana, Helvetica, Arial" font-weight="normal"  style="display: block;"><tspan dy="-0.8999999999999999em" >Submits transactions</tspan><tspan dy="1.2em" x="0" >and consumes finalized</tspan><tspan dy="1.2em" x="0" >events</tspan></text></g><g id="v-2232"  label-idx="1" cursor="move" transform="matrix(1,0,0,1,3366.93359375,379.6000061035156)" style="cursor: default;"><rect joint-selector="rect" id="v-2237" fill="#ffffff" rx="3" ry="3" x="-90.10416412353516" y="-7.331110000610352" width="180.2083282470703" height="13.888888359069824"  pointer-events="none" style="display: block;"></rect><text joint-selector="text" id="v-2236" font-size="12.6px" xml:space="preserve" fill="#476177" text-anchor="middle" pointer-events="none" font-family="Tahoma, Verdana, Helvetica, Arial" font-weight="normal"  style="display: block;"><tspan dy="0.3em" >[Ethereum JSON-RPC + events]</tspan></text></g><g id="v-2233"  label-idx="2" cursor="move" transform="matrix(1,0,0,1,3484.88671875,385.8999938964844)" style="cursor: default;"><rect joint-selector="rect" id="v-2239" fill="#ffffff" rx="3" ry="3" x="4.547473508864641e-13" y="0" width="0" height="0"  display="none"></rect><text joint-selector="text" id="v-2238" fill="#000000" font-size="14" text-anchor="middle" text-vertical-anchor="middle" pointer-events="none"></text></g></g></g><!--z-index:29--><g   id="j_162"  style="opacity: 1;"><path fill="none" cursor="pointer" stroke="transparent" stroke-linecap="round" joint-selector="wrapper" id="v-2256" stroke-width="10" stroke-linejoin="round" d="M 2299 525 L 2299 544 C 2299 550.8999999999999 2302.333333333333 554.2333333333332 2309 554 L 2769 554 C 2775.6666666666665 554.2333333333332 2782.333333333333 554.2333333333332 2789 554 L 3249 554 C 3255.6666666666665 554.2333333333332 3259 557.5666666666666 3259 564 L 3259 648"></path><path fill="none" pointer-events="none" joint-selector="line" id="v-2255" stroke="#476177" stroke-width="2" stroke-linejoin="round" stroke-dasharray="" d="M 2299 525 L 2299 544 C 2299 550.8999999999999 2302.333333333333 554.2333333333332 2309 554 L 2769 554 C 2775.6666666666665 554.2333333333332 2782.333333333333 554.2333333333332 2789 554 L 3249 554 C 3255.6666666666665 554.2333333333332 3259 557.5666666666666 3259 564 L 3259 648" marker-end="url(#v-21867269473)"></path><g id="v-2245" ><g id="v-2246"  label-idx="0" cursor="move" transform="matrix(1,0,0,1,2799.78955078125,542.7000122070312)" style="cursor: default;"><rect joint-selector="rect" id="v-2250" fill="#ffffff" rx="3" ry="3" x="-93.90190887451172" y="-32.86666488647461" width="188.9122314453125" height="62.64444351196289" pointer-events="none"  style="display: block;"></rect><text joint-selector="text" id="v-2249" font-size="18px" xml:space="preserve" fill="#476177" text-anchor="middle" pointer-events="none" font-family="Tahoma, Verdana, Helvetica, Arial" font-weight="normal"  style="display: block;"><tspan dy="-0.8999999999999999em" >Exchanges private data</tspan><tspan dy="1.2em" x="0" >and shared content</tspan><tspan dy="1.2em" x="0" >references</tspan></text></g><g id="v-2247"  label-idx="1" cursor="move" transform="matrix(1,0,0,1,2799.78955078125,589.5999755859375)" style="cursor: default;"><rect joint-selector="rect" id="v-2252" fill="#ffffff" rx="3" ry="3" x="-41.31944274902344" y="-7.331110000610352" width="82.63888549804688" height="13.888888359069824"  pointer-events="none" style="display: block;"></rect><text joint-selector="text" id="v-2251" font-size="12.6px" xml:space="preserve" fill="#476177" text-anchor="middle" pointer-events="none" font-family="Tahoma, Verdana, Helvetica, Arial" font-weight="normal"  style="display: block;"><tspan dy="0.3em" >[mTLS + IPFS]</tspan></text></g><g id="v-2248"  label-idx="2" cursor="move" transform="matrix(1,0,0,1,2801.3662109375,595.9000244140625)" style="cursor: default;"><rect joint-selector="rect" id="v-2254" fill="#ffffff" rx="3" ry="3" x="0" y="0" width="0" height="0"  display="none"></rect><text joint-selector="text" id="v-2253" fill="#000000" font-size="14" text-anchor="middle" text-vertical-anchor="middle" pointer-events="none"></text></g></g></g><!--z-index:30--><g   id="j_163"  style="opacity: 1;"><path fill="none" cursor="pointer" stroke="transparent" stroke-linecap="round" joint-selector="wrapper" id="v-2274" stroke-width="10" stroke-linejoin="round" d="M 3439 758 L 3729 758 C 3735.6666666666665 758 3739 758 3739 758 L 3739 758 C 3739 758.2333333333333 3739 761.5666666666666 3739 768 L 3739 803 C 3739 809.6666666666666 3742.333333333333 813 3749 813 L 4039 813"></path><path fill="none" pointer-events="none" joint-selector="line" id="v-2273" stroke="#476177" stroke-width="2" stroke-linejoin="round" stroke-dasharray="" d="M 3439 758 L 3729 758 C 3735.6666666666665 758 3739 758 3739 758 L 3739 758 C 3739 758.2333333333333 3739 761.5666666666666 3739 768 L 3739 803 C 3739 809.6666666666666 3742.333333333333 813 3749 813 L 4039 813" marker-end="url(#v-21867269473)"></path><g id="v-2263" ><g id="v-2264"  label-idx="0" cursor="move" transform="matrix(1,0,0,1,3739,771.2380981445312)" style="cursor: default;"><rect joint-selector="rect" id="v-2268" fill="#ffffff" rx="3" ry="3" x="-93.90190887451172" y="-32.86666488647461" width="188.90345764160156" height="62.64444351196289" pointer-events="none"  style="display: block;"></rect><text joint-selector="text" id="v-2267" font-size="18px" xml:space="preserve" fill="#476177" text-anchor="middle" pointer-events="none" font-family="Tahoma, Verdana, Helvetica, Arial" font-weight="normal"  style="display: block;"><tspan dy="-0.8999999999999999em" >Submits transactions</tspan><tspan dy="1.2em" x="0" >and consumes finalized</tspan><tspan dy="1.2em" x="0" >events</tspan></text></g><g id="v-2265"  label-idx="1" cursor="move" transform="matrix(1,0,0,1,3739,818.1381225585938)" style="cursor: default;"><rect joint-selector="rect" id="v-2270" fill="#ffffff" rx="3" ry="3" x="-90.10416412353516" y="-7.331110000610352" width="180.2083282470703" height="13.888888359069824"  pointer-events="none" style="display: block;"></rect><text joint-selector="text" id="v-2269" font-size="12.6px" xml:space="preserve" fill="#476177" text-anchor="middle" pointer-events="none" font-family="Tahoma, Verdana, Helvetica, Arial" font-weight="normal"  style="display: block;"><tspan dy="0.3em" >[Ethereum JSON-RPC + events]</tspan></text></g><g id="v-2266"  label-idx="2" cursor="move" transform="matrix(1,0,0,1,3729,825.5153198242188)" style="cursor: default;"><rect joint-selector="rect" id="v-2272" fill="#ffffff" rx="3" ry="3" x="0" y="0" width="0" height="0"  display="none"></rect><text joint-selector="text" id="v-2271" fill="#000000" font-size="14" text-anchor="middle" text-vertical-anchor="middle" pointer-events="none"></text></g></g></g><!--z-index:31--><g   id="j_164"  style="opacity: 1;"><path fill="none" cursor="pointer" stroke="transparent" stroke-linecap="round" joint-selector="wrapper" id="v-2289" stroke-width="10" stroke-linejoin="round" d="M 379 755 L 379 533 C 379 526.5 382.3333333333333 523.1666666666666 389 523 L 849 523 C 855.6666666666666 523.1666666666666 859 523.1666666666666 859 523 L 859 523 C 859 523 862.3333333333333 523 869 523 L 1159 523"></path><path fill="none" pointer-events="none" joint-selector="line" id="v-2288" stroke="#6d817a" stroke-width="2" stroke-linejoin="round" stroke-dasharray="8 8" d="M 379 755 L 379 533 C 379 526.5 382.3333333333333 523.1666666666666 389 523 L 849 523 C 855.6666666666666 523.1666666666666 859 523.1666666666666 859 523 L 859 523 C 859 523 862.3333333333333 523 869 523 L 1159 523" marker-end="url(#v-2-985808639)"></path><g id="v-2278" ><g id="v-2279"  label-idx="0" cursor="move" transform="matrix(1,0,0,1,727.092041015625,511.70001220703125)" style="cursor: default;"><rect joint-selector="rect" id="v-2283" fill="#ffffff" rx="3" ry="3" x="-99.89148712158203" y="-22.066665649414062" width="200.8884735107422" height="41.0444450378418" pointer-events="none"  style="display: block;"></rect><text joint-selector="text" id="v-2282" font-size="18px" xml:space="preserve" fill="#6d817a" text-anchor="middle" pointer-events="none" font-family="Tahoma, Verdana, Helvetica, Arial" font-weight="normal"  style="display: block;"><tspan dy="-0.3em" >Routes API requests and</tspan><tspan dy="1.2em" x="0" >observes health</tspan></text></g><g id="v-2280"  label-idx="1" cursor="move" transform="matrix(1,0,0,1,727.092041015625,547.7999877929688)" style="cursor: default;"><rect joint-selector="rect" id="v-2285" fill="#ffffff" rx="3" ry="3" x="-51.410587310791016" y="-7.331110000610352" width="102.82117462158203" height="13.888888359069824"  pointer-events="none" style="display: block;"></rect><text joint-selector="text" id="v-2284" font-size="12.6px" xml:space="preserve" fill="#6d817a" text-anchor="middle" pointer-events="none" font-family="Tahoma, Verdana, Helvetica, Arial" font-weight="normal"  style="display: block;"><tspan dy="0.3em" >[HTTPS + metrics]</tspan></text></g><g id="v-2281"  label-idx="2" cursor="move" transform="matrix(1,0,0,1,644.9353637695312,554.0999755859375)" style="cursor: default;"><rect joint-selector="rect" id="v-2287" fill="#ffffff" rx="3" ry="3" x="2.2737367544323206e-13" y="0" width="0" height="0"  display="none"></rect><text joint-selector="text" id="v-2286" fill="#000000" font-size="14" text-anchor="middle" text-vertical-anchor="middle" pointer-events="none"></text></g></g></g><!--z-index:32--><g   id="j_165"  style="opacity: 1;"><path fill="none" cursor="pointer" stroke="transparent" stroke-linecap="round" joint-selector="wrapper" id="v-2304" stroke-width="10" stroke-linejoin="round" d="M 559 865 L 1809 865 C 1815.6666666666665 865 1818.9999999999998 865 1819 865 L 1819 865 C 1818.9999999999998 865.4666666666665 1822.333333333333 865.7999999999998 1829 866 L 2289 866 C 2295.6666666666665 865.7999999999998 2299 862.4666666666665 2299 856 L 2299 525"></path><path fill="none" pointer-events="none" joint-selector="line" id="v-2303" stroke="#6d817a" stroke-width="2" stroke-linejoin="round" stroke-dasharray="8 8" d="M 559 865 L 1809 865 C 1815.6666666666665 865 1818.9999999999998 865 1819 865 L 1819 865 C 1818.9999999999998 865.4666666666665 1822.333333333333 865.7999999999998 1829 866 L 2289 866 C 2295.6666666666665 865.7999999999998 2299 862.4666666666665 2299 856 L 2299 525" marker-end="url(#v-2-985808639)"></path><g id="v-2293" ><g id="v-2294"  label-idx="0" cursor="move" transform="matrix(1,0,0,1,1481.205322265625,853.7000122070312)" style="cursor: default;"><rect joint-selector="rect" id="v-2298" fill="#ffffff" rx="3" ry="3" x="-99.89148712158203" y="-22.066665649414062" width="200.8884735107422" height="41.0444450378418" pointer-events="none"  style="display: block;"></rect><text joint-selector="text" id="v-2297" font-size="18px" xml:space="preserve" fill="#6d817a" text-anchor="middle" pointer-events="none" font-family="Tahoma, Verdana, Helvetica, Arial" font-weight="normal"  style="display: block;"><tspan dy="-0.3em" >Routes API requests and</tspan><tspan dy="1.2em" x="0" >observes health</tspan></text></g><g id="v-2295"  label-idx="1" cursor="move" transform="matrix(1,0,0,1,1481.205322265625,889.7999877929688)" style="cursor: default;"><rect joint-selector="rect" id="v-2300" fill="#ffffff" rx="3" ry="3" x="-51.410587310791016" y="-7.331110000610352" width="102.82117462158203" height="13.888888359069824"  pointer-events="none" style="display: block;"></rect><text joint-selector="text" id="v-2299" font-size="12.6px" xml:space="preserve" fill="#6d817a" text-anchor="middle" pointer-events="none" font-family="Tahoma, Verdana, Helvetica, Arial" font-weight="normal"  style="display: block;"><tspan dy="0.3em" >[HTTPS + metrics]</tspan></text></g><g id="v-2296"  label-idx="2" cursor="move" transform="matrix(1,0,0,1,1587.630126953125,896.0999755859375)" style="cursor: default;"><rect joint-selector="rect" id="v-2302" fill="#ffffff" rx="3" ry="3" x="0" y="0" width="0" height="0"  display="none"></rect><text joint-selector="text" id="v-2301" fill="#000000" font-size="14" text-anchor="middle" text-vertical-anchor="middle" pointer-events="none"></text></g></g></g><!--z-index:33--><g   id="j_166"  style="opacity: 1;"><path fill="none" cursor="pointer" stroke="transparent" stroke-linecap="round" joint-selector="wrapper" id="v-2319" stroke-width="10" stroke-linejoin="round" d="M 559 865 L 849 865 C 855.6666666666666 865 859 868.3333333333333 859 875 L 859 937 C 859 943.5333333333333 862.3333333333333 946.8666666666666 869 947 L 2769 947 C 2775.6666666666665 946.8666666666666 2782.333333333333 946.8666666666666 2789 947 L 3249 947 C 3255.6666666666665 946.8666666666666 3259 943.5333333333333 3259 937 L 3259 868"></path><path fill="none" pointer-events="none" joint-selector="line" id="v-2318" stroke="#6d817a" stroke-width="2" stroke-linejoin="round" stroke-dasharray="8 8" d="M 559 865 L 849 865 C 855.6666666666666 865 859 868.3333333333333 859 875 L 859 937 C 859 943.5333333333333 862.3333333333333 946.8666666666666 869 947 L 2769 947 C 2775.6666666666665 946.8666666666666 2782.333333333333 946.8666666666666 2789 947 L 3249 947 C 3255.6666666666665 946.8666666666666 3259 943.5333333333333 3259 937 L 3259 868" marker-end="url(#v-2-985808639)"></path><g id="v-2308" ><g id="v-2309"  label-idx="0" cursor="move" transform="matrix(1,0,0,1,1899.291748046875,935.7000122070312)" style="cursor: default;"><rect joint-selector="rect" id="v-2313" fill="#ffffff" rx="3" ry="3" x="-99.89148712158203" y="-22.066665649414062" width="200.8884735107422" height="41.0444450378418" pointer-events="none"  style="display: block;"></rect><text joint-selector="text" id="v-2312" font-size="18px" xml:space="preserve" fill="#6d817a" text-anchor="middle" pointer-events="none" font-family="Tahoma, Verdana, Helvetica, Arial" font-weight="normal"  style="display: block;"><tspan dy="-0.3em" >Routes API requests and</tspan><tspan dy="1.2em" x="0" >observes health</tspan></text></g><g id="v-2310"  label-idx="1" cursor="move" transform="matrix(1,0,0,1,1899.291748046875,971.7999877929688)" style="cursor: default;"><rect joint-selector="rect" id="v-2315" fill="#ffffff" rx="3" ry="3" x="-51.410587310791016" y="-7.331110000610352" width="102.82117462158203" height="13.888888359069824"  pointer-events="none" style="display: block;"></rect><text joint-selector="text" id="v-2314" font-size="12.6px" xml:space="preserve" fill="#6d817a" text-anchor="middle" pointer-events="none" font-family="Tahoma, Verdana, Helvetica, Arial" font-weight="normal"  style="display: block;"><tspan dy="0.3em" >[HTTPS + metrics]</tspan></text></g><g id="v-2311"  label-idx="2" cursor="move" transform="matrix(1,0,0,1,1899.38525390625,978.0999755859375)" style="cursor: default;"><rect joint-selector="rect" id="v-2317" fill="#ffffff" rx="3" ry="3" x="-4.547473508864641e-13" y="0" width="0" height="0"  display="none"></rect><text joint-selector="text" id="v-2316" fill="#000000" font-size="14" text-anchor="middle" text-vertical-anchor="middle" pointer-events="none"></text></g></g></g><!--z-index:34--><g   id="j_167"  style="opacity: 1;"><path fill="none" cursor="pointer" stroke="transparent" stroke-linecap="round" joint-selector="wrapper" id="v-2334" stroke-width="10" stroke-linejoin="round" d="M 379 975 L 379 1018 C 379 1024.6 382.3333333333333 1027.9333333333334 389 1028 L 849 1028 C 855.6666666666666 1027.9333333333334 862.3333333333333 1027.9333333333334 869 1028 L 3729 1028 C 3735.6666666666665 1027.9333333333334 3742.333333333333 1027.9333333333334 3749 1028 L 4209 1028 C 4215.666666666666 1027.9333333333334 4219 1024.6 4219 1018 L 4219 923"></path><path fill="none" pointer-events="none" joint-selector="line" id="v-2333" stroke="#6d817a" stroke-width="2" stroke-linejoin="round" stroke-dasharray="8 8" d="M 379 975 L 379 1018 C 379 1024.6 382.3333333333333 1027.9333333333334 389 1028 L 849 1028 C 855.6666666666666 1027.9333333333334 862.3333333333333 1027.9333333333334 869 1028 L 3729 1028 C 3735.6666666666665 1027.9333333333334 3742.333333333333 1027.9333333333334 3749 1028 L 4209 1028 C 4215.666666666666 1027.9333333333334 4219 1024.6 4219 1018 L 4219 923" marker-end="url(#v-2-985808639)"></path><g id="v-2323" ><g id="v-2324"  label-idx="0" cursor="move" transform="matrix(1,0,0,1,2318.300048828125,1016.7000122070312)" style="cursor: default;"><rect joint-selector="rect" id="v-2328" fill="#ffffff" rx="3" ry="3" x="-76.43228912353516" y="-22.066665649414062" width="153.93984985351562" height="43.82222366333008" pointer-events="none"  style="display: block;"></rect><text joint-selector="text" id="v-2327" font-size="18px" xml:space="preserve" fill="#6d817a" text-anchor="middle" pointer-events="none" font-family="Tahoma, Verdana, Helvetica, Arial" font-weight="normal"  style="display: block;"><tspan dy="-0.3em" >Observes peer and</tspan><tspan dy="1.2em" x="0" >quorum health</tspan></text></g><g id="v-2325"  label-idx="1" cursor="move" transform="matrix(1,0,0,1,2318.300048828125,1052.800048828125)" style="cursor: default;"><rect joint-selector="rect" id="v-2330" fill="#ffffff" rx="3" ry="3" x="-45.3125" y="-7.331110000610352" width="90.625" height="13.888888359069824"  pointer-events="none" style="display: block;"></rect><text joint-selector="text" id="v-2329" font-size="12.6px" xml:space="preserve" fill="#6d817a" text-anchor="middle" pointer-events="none" font-family="Tahoma, Verdana, Helvetica, Arial" font-weight="normal"  style="display: block;"><tspan dy="0.3em" >[HTTP / metrics]</tspan></text></g><g id="v-2326"  label-idx="2" cursor="move" transform="matrix(1,0,0,1,2315,1059.0999755859375)" style="cursor: default;"><rect joint-selector="rect" id="v-2332" fill="#ffffff" rx="3" ry="3" x="-4.547473508864641e-13" y="0" width="0" height="0"  display="none"></rect><text joint-selector="text" id="v-2331" fill="#000000" font-size="14" text-anchor="middle" text-vertical-anchor="middle" pointer-events="none"></text></g></g></g><!--z-index:35--><!--z-index:36--><!--z-index:37--><!--z-index:38--><!--z-index:39--><!--z-index:40--><!--z-index:41--><!--z-index:42--><!--z-index:43--><!--z-index:44--><!--z-index:45--><!--z-index:46--><!--z-index:47--><!--z-index:48--><!--z-index:49--><!--z-index:50--><!--z-index:51--><!--z-index:52--><!--z-index:53--><!--z-index:54--><!--z-index:55--><!--z-index:56--><!--z-index:57--><!--z-index:58--><!--z-index:59--><!--z-index:60--><!--z-index:61--><!--z-index:62--><!--z-index:63--><!--z-index:64--><!--z-index:65--></g><g  style="user-select: none;"></g><g ></g><g  display="none"></g></g></svg>