<svg xmlns="http://www.w3.org/2000/svg" xmlns:xlink="http://www.w3.org/1999/xlink" version="1.1" width="4020" height="2315" style="width: 4020px; height: 2315px; background: #ffffff" viewBox="0 0 4020 2315"><style id="v-3" type="text/css">        .joint-element .scalable * {            vector-effect: non-scaling-stroke;        }    </style><defs joint-selector="defs"><marker id="v-21867269473" orient="auto" overflow="visible" markerUnits="userSpaceOnUse"><path id="v-168" stroke="#476177" fill="#476177" transform="rotate(180)" d="M 20 -10 0 0 20 10 Z"></path></marker><marker id="v-2-985808639" orient="auto" overflow="visible" markerUnits="userSpaceOnUse"><path id="v-188" stroke="#6d817a" fill="#6d817a" transform="rotate(180)" d="M 20 -10 0 0 20 10 Z"></path></marker><marker id="v-2-178010847" orient="auto" overflow="visible" markerUnits="userSpaceOnUse"><path id="v-2441" stroke="#888888" fill="#888888" transform="rotate(180)" d="M 20 -10 0 0 20 10 Z"></path></marker><marker id="v-21157992225" orient="auto" overflow="visible" markerUnits="userSpaceOnUse"><path id="v-2754" stroke="#8c4966" fill="#8c4966" transform="rotate(180)" d="M 20 -10 0 0 20 10 Z"></path></marker><marker id="v-2-1359970463" orient="auto" overflow="visible" markerUnits="userSpaceOnUse"><path id="v-4493" stroke="#237a69" fill="#237a69" transform="rotate(180)" d="M 20 -10 0 0 20 10 Z"></path></marker></defs><g joint-selector="layers"  transform="matrix(1,0,0,1,0,0)"><g  style="pointer-events: none;"></g><g ></g><g  style="user-select: none;"><!--z-index:0--><!--z-index:1--><!--z-index:2--><!--z-index:3--><!--z-index:4--><!--z-index:5--><!--z-index:6--><!--z-index:7--><!--z-index:8--><!--z-index:9--><!--z-index:10--><!--z-index:11--><!--z-index:12--><!--z-index:13--><!--z-index:14--><!--z-index:15--><!--z-index:16--><!--z-index:17--><!--z-index:18--><!--z-index:19--><!--z-index:20--><g   id="j_1381"  transform="translate(20,2271)"><g id="v-18870"><text  id="v-18871" font-size="24px" xml:space="preserve" y="0.8em" font-weight="normal" text-anchor="start" fill="#444444" pointer-events="none" display="block" font-family="Tahoma, Verdana, Helvetica, Arial"><tspan dy="0" >Tuesday, September 15, 2026 at 8:54 PM Coordinated Universal Time</tspan></text></g></g><!--z-index:21--><g   id="j_1380"  transform="translate(20,2237)"><g id="v-18868"><text  id="v-18869" font-size="24px" xml:space="preserve" y="0.8em" font-weight="normal" text-anchor="start" fill="#444444" pointer-events="none" display="block" font-family="Tahoma, Verdana, Helvetica, Arial"><tspan dy="0" >Component - Member C transaction signing</tspan></text></g></g><!--z-index:22--><g   id="j_1379"  transform="translate(20,2191)"><g id="v-18866"><text  id="v-18867" font-size="36px" xml:space="preserve" y="0.8em" font-weight="normal" text-anchor="start" fill="#444444" pointer-events="none" display="block" font-family="Tahoma, Verdana, Helvetica, Arial"><tspan dy="0" >Component - Member C transaction signing</tspan></text></g></g><!--z-index:23--><g   id="j_1384"  transform="translate(199,142)" style="; opacity: 1;"><g id="v-18890"><rect  id="v-18891" width="3620" height="1396" rx="0" ry="0" stroke-width="2" pointer-events="none" stroke="#57718a" fill="#ffffff" opacity="1" stroke-dasharray=""></rect><text  id="v-18892" font-size="33.599999999999994px" xml:space="preserve" y="1357" font-weight="bold" text-anchor="start" pointer-events="visible" font-family="Tahoma, Verdana, Helvetica, Arial" fill="#57718a" transform="matrix(1,0,0,1,15,0)"><tspan dy="0" >Member C FireFly</tspan></text><text  id="v-18893" font-size="16.799999999999997px" xml:space="preserve" y="1381" font-weight="normal" text-anchor="start" pointer-events="visible" font-family="Tahoma, Verdana, Helvetica, Arial" fill="#57718a" transform="matrix(1,0,0,1,15,0)"><tspan dy="0" >[Software System]</tspan></text><image  id="v-18894" pointer-events="visible"></image></g></g><!--z-index:24--><g   id="j_1383"  transform="translate(249,192)" style="; opacity: 1;"><g id="v-18885"><rect  id="v-18886" width="3520" height="876" rx="0" ry="0" stroke-width="2" pointer-events="none" stroke="#57718a" fill="#ffffff" opacity="1" stroke-dasharray=""></rect><text  id="v-18887" font-size="33.599999999999994px" xml:space="preserve" y="837" font-weight="bold" text-anchor="start" pointer-events="visible" font-family="Tahoma, Verdana, Helvetica, Arial" fill="#122c43" transform="matrix(1,0,0,1,15,0)"><tspan dy="0" >FireFly Signer</tspan></text><text  id="v-18888" font-size="16.799999999999997px" xml:space="preserve" y="861" font-weight="normal" text-anchor="start" pointer-events="visible" font-family="Tahoma, Verdana, Helvetica, Arial" fill="#122c43" transform="matrix(1,0,0,1,15,0)"><tspan dy="0" >[Container]</tspan></text><image  id="v-18889" pointer-events="visible"></image></g></g><!--z-index:25--><g   id="j_1389"  transform="translate(3359,1189)" style=""><g  id="v-18953" style="opacity: 1;"><path  d="M 0,30 a 180,30 0,0,0 360 0 a 180,30 0,0,0 -360 0 l 0,160 a 180,30 0,0,0 360 0 l 0,-160" id="v-18954" stroke-width="2" pointer-events="visiblePainted" fill="#e8e4f5" stroke="#8c4966" stroke-dasharray="" style="fill: rgb(232, 228, 245); stroke: rgb(140, 73, 102);"></path><rect  id="v-18955" stroke-width="0" pointer-events="visiblePainted" fill="none" stroke="none" width="360" height="190" x="0" y="30"></rect><text  id="v-18956" font-size="30.799999999999997px" xml:space="preserve" y="47.72" font-weight="bold" text-anchor="middle" pointer-events="visible" font-family="Tahoma, Verdana, Helvetica, Arial" fill="#122c43" dominant-baseline="hanging" transform="matrix(1,0,0,1,180,0)" style="fill: rgb(18, 44, 67);"><tspan dy="0" >Member keys and</tspan><tspan dy="1.2em" x="0" >configuration</tspan></text><text  id="v-18957" font-size="15.399999999999999px" xml:space="preserve" y="123.47999999999999" text-anchor="middle" font-family="Tahoma, Verdana, Helvetica, Arial" fill="#122c43" dominant-baseline="hanging" transform="matrix(1,0,0,1,180,0)" style="display: block; fill: rgb(18, 44, 67);"><tspan dy="0" >[Container: Kubernetes Secrets]</tspan></text><text  id="v-18958" font-size="22px" xml:space="preserve" y="153.88" text-anchor="middle" font-family="Tahoma, Verdana, Helvetica, Arial" fill="#122c43" dominant-baseline="hanging" transform="matrix(1,0,0,1,180,0)" style="display: block; fill: rgb(18, 44, 67);"><tspan dy="0" >Holds signing keystores,</tspan><tspan dy="1.2em" x="0" >mTLS keys and configuration.</tspan></text><g  id="v-18959" font-weight="normal" text-anchor="middle" color="#122c43" transform="matrix(1,0,0,1,165,188)" display="none" style="fill: rgb(18, 44, 67);"><g ></g><g ></g><g ></g><g  transform="translate(5 0)"><svg xmlns="http://www.w3.org/2000/svg" width="20" height="20" fill="currentColor" viewBox="0 0 16 16"><path d="M6.354 5.5H4a3 3 0 0 0 0 6h3a3 3 0 0 0 2.83-4H9c-.086 0-.17.01-.25.031A2 2 0 0 1 7 10.5H4a2 2 0 1 1 0-4h1.535c.218-.376.495-.714.82-1z"></path><path d="M9 5.5a3 3 0 0 0-2.83 4h1.098A2 2 0 0 1 9 6.5h3a2 2 0 1 1 0 4h-1.535a4.02 4.02 0 0 1-.82 1H12a3 3 0 1 0 0-6H9z"></path></svg></g></g><image  id="v-18960"></image></g></g><!--z-index:26--><g   id="j_1382"  transform="translate(299,509)" style=""><g  id="v-18878" style="opacity: 1;"><rect  id="v-18879" rx="1" ry="1" stroke-width="2" pointer-events="visiblePainted" fill="#eef5fa" stroke="#57718a" stroke-dasharray="" width="360" height="220" style="fill: rgb(238, 245, 250); stroke: rgb(87, 113, 138);"></rect><text  id="v-18880" font-size="30.799999999999997px" xml:space="preserve" y="38" font-weight="bold" text-anchor="middle" pointer-events="visible" font-family="Tahoma, Verdana, Helvetica, Arial" fill="#122c43" dominant-baseline="hanging" transform="matrix(1,0,0,1,180,0)" style="fill: rgb(18, 44, 67);"><tspan dy="0" >JSON-RPC proxy</tspan></text><text  id="v-18881" font-size="15.399999999999999px" xml:space="preserve" y="76.8" text-anchor="middle" font-family="Tahoma, Verdana, Helvetica, Arial" fill="#122c43" dominant-baseline="hanging" transform="matrix(1,0,0,1,180,0)" style="display: block; fill: rgb(18, 44, 67);"><tspan dy="0" >[Component: Go]</tspan></text><text  id="v-18882" font-size="22px" xml:space="preserve" y="107.19999999999999" text-anchor="middle" font-family="Tahoma, Verdana, Helvetica, Arial" fill="#122c43" dominant-baseline="hanging" transform="matrix(1,0,0,1,180,0)" style="display: block; fill: rgb(18, 44, 67);"><tspan dy="0" >Intercepts transaction</tspan><tspan dy="1.2em" x="0" >requests and forwards read</tspan><tspan dy="1.2em" x="0" >calls.</tspan></text><g  id="v-18883" color="#122c43" transform="matrix(1,0,0,1,165,188)" display="none" style="fill: rgb(18, 44, 67);"><g ></g><g ></g><g ></g><g  transform="translate(5 0)"><svg xmlns="http://www.w3.org/2000/svg" width="20" height="20" fill="currentColor" viewBox="0 0 16 16"><path d="M6.354 5.5H4a3 3 0 0 0 0 6h3a3 3 0 0 0 2.83-4H9c-.086 0-.17.01-.25.031A2 2 0 0 1 7 10.5H4a2 2 0 1 1 0-4h1.535c.218-.376.495-.714.82-1z"></path><path d="M9 5.5a3 3 0 0 0-2.83 4h1.098A2 2 0 0 1 9 6.5h3a2 2 0 1 1 0 4h-1.535a4.02 4.02 0 0 1-.82 1H12a3 3 0 1 0 0-6H9z"></path></svg></g></g><image  id="v-18884"></image></g></g><!--z-index:27--><g   id="j_1385"  transform="translate(2219,299)" style=""><g  id="v-18901" style="opacity: 1;"><rect  id="v-18902" rx="1" ry="1" stroke-width="2" pointer-events="visiblePainted" fill="#eef5fa" stroke="#57718a" stroke-dasharray="" width="360" height="220" style="fill: rgb(238, 245, 250); stroke: rgb(87, 113, 138);"></rect><text  id="v-18903" font-size="30.799999999999997px" xml:space="preserve" y="38" font-weight="bold" text-anchor="middle" pointer-events="visible" font-family="Tahoma, Verdana, Helvetica, Arial" fill="#122c43" dominant-baseline="hanging" transform="matrix(1,0,0,1,180,0)" style="fill: rgb(18, 44, 67);"><tspan dy="0" >Filesystem wallet</tspan></text><text  id="v-18904" font-size="15.399999999999999px" xml:space="preserve" y="76.8" text-anchor="middle" font-family="Tahoma, Verdana, Helvetica, Arial" fill="#122c43" dominant-baseline="hanging" transform="matrix(1,0,0,1,180,0)" style="display: block; fill: rgb(18, 44, 67);"><tspan dy="0" >[Component: Go]</tspan></text><text  id="v-18905" font-size="22px" xml:space="preserve" y="107.19999999999999" text-anchor="middle" font-family="Tahoma, Verdana, Helvetica, Arial" fill="#122c43" dominant-baseline="hanging" transform="matrix(1,0,0,1,180,0)" style="display: block; fill: rgb(18, 44, 67);"><tspan dy="0" >Loads member keystore files</tspan><tspan dy="1.2em" x="0" >and resolves signing</tspan><tspan dy="1.2em" x="0" >accounts.</tspan></text><g  id="v-18906" color="#122c43" transform="matrix(1,0,0,1,165,188)" display="none" style="fill: rgb(18, 44, 67);"><g ></g><g ></g><g ></g><g  transform="translate(5 0)"><svg xmlns="http://www.w3.org/2000/svg" width="20" height="20" fill="currentColor" viewBox="0 0 16 16"><path d="M6.354 5.5H4a3 3 0 0 0 0 6h3a3 3 0 0 0 2.83-4H9c-.086 0-.17.01-.25.031A2 2 0 0 1 7 10.5H4a2 2 0 1 1 0-4h1.535c.218-.376.495-.714.82-1z"></path><path d="M9 5.5a3 3 0 0 0-2.83 4h1.098A2 2 0 0 1 9 6.5h3a2 2 0 1 1 0 4h-1.535a4.02 4.02 0 0 1-.82 1H12a3 3 0 1 0 0-6H9z"></path></svg></g></g><image  id="v-18907"></image></g></g><!--z-index:28--><g   id="j_1386"  transform="translate(3359,242)" style=""><g  id="v-18914" style="opacity: 1;"><rect  id="v-18915" rx="1" ry="1" stroke-width="2" pointer-events="visiblePainted" fill="#eef5fa" stroke="#57718a" stroke-dasharray="" width="360" height="220" style="fill: rgb(238, 245, 250); stroke: rgb(87, 113, 138);"></rect><text  id="v-18916" font-size="30.799999999999997px" xml:space="preserve" y="51.2" font-weight="bold" text-anchor="middle" pointer-events="visible" font-family="Tahoma, Verdana, Helvetica, Arial" fill="#122c43" dominant-baseline="hanging" transform="matrix(1,0,0,1,180,0)" style="fill: rgb(18, 44, 67);"><tspan dy="0" >Keystore V3 decoder</tspan></text><text  id="v-18917" font-size="15.399999999999999px" xml:space="preserve" y="90" text-anchor="middle" font-family="Tahoma, Verdana, Helvetica, Arial" fill="#122c43" dominant-baseline="hanging" transform="matrix(1,0,0,1,180,0)" style="display: block; fill: rgb(18, 44, 67);"><tspan dy="0" >[Component: Go]</tspan></text><text  id="v-18918" font-size="22px" xml:space="preserve" y="120.39999999999999" text-anchor="middle" font-family="Tahoma, Verdana, Helvetica, Arial" fill="#122c43" dominant-baseline="hanging" transform="matrix(1,0,0,1,180,0)" style="display: block; fill: rgb(18, 44, 67);"><tspan dy="0" >Decrypts encrypted account</tspan><tspan dy="1.2em" x="0" >key files.</tspan></text><g  id="v-18919" color="#122c43" transform="matrix(1,0,0,1,165,188)" display="none" style="fill: rgb(18, 44, 67);"><g ></g><g ></g><g ></g><g  transform="translate(5 0)"><svg xmlns="http://www.w3.org/2000/svg" width="20" height="20" fill="currentColor" viewBox="0 0 16 16"><path d="M6.354 5.5H4a3 3 0 0 0 0 6h3a3 3 0 0 0 2.83-4H9c-.086 0-.17.01-.25.031A2 2 0 0 1 7 10.5H4a2 2 0 1 1 0-4h1.535c.218-.376.495-.714.82-1z"></path><path d="M9 5.5a3 3 0 0 0-2.83 4h1.098A2 2 0 0 1 9 6.5h3a2 2 0 1 1 0 4h-1.535a4.02 4.02 0 0 1-.82 1H12a3 3 0 1 0 0-6H9z"></path></svg></g></g><image  id="v-18920"></image></g></g><!--z-index:29--><g   id="j_1387"  transform="translate(1259,509)" style=""><g  id="v-18927" style="opacity: 1;"><rect  id="v-18928" rx="1" ry="1" stroke-width="2" pointer-events="visiblePainted" fill="#eef5fa" stroke="#57718a" stroke-dasharray="" width="360" height="220" style="fill: rgb(238, 245, 250); stroke: rgb(87, 113, 138);"></rect><text  id="v-18929" font-size="30.799999999999997px" xml:space="preserve" y="51.2" font-weight="bold" text-anchor="middle" pointer-events="visible" font-family="Tahoma, Verdana, Helvetica, Arial" fill="#122c43" dominant-baseline="hanging" transform="matrix(1,0,0,1,180,0)" style="fill: rgb(18, 44, 67);"><tspan dy="0" >Ethereum signing</tspan></text><text  id="v-18930" font-size="15.399999999999999px" xml:space="preserve" y="90" text-anchor="middle" font-family="Tahoma, Verdana, Helvetica, Arial" fill="#122c43" dominant-baseline="hanging" transform="matrix(1,0,0,1,180,0)" style="display: block; fill: rgb(18, 44, 67);"><tspan dy="0" >[Component: Go]</tspan></text><text  id="v-18931" font-size="22px" xml:space="preserve" y="120.39999999999999" text-anchor="middle" font-family="Tahoma, Verdana, Helvetica, Arial" fill="#122c43" dominant-baseline="hanging" transform="matrix(1,0,0,1,180,0)" style="display: block; fill: rgb(18, 44, 67);"><tspan dy="0" >Encodes and signs EIP-155</tspan><tspan dy="1.2em" x="0" >and EIP-1559 transactions.</tspan></text><g  id="v-18932" color="#122c43" transform="matrix(1,0,0,1,165,188)" display="none" style="fill: rgb(18, 44, 67);"><g ></g><g ></g><g ></g><g  transform="translate(5 0)"><svg xmlns="http://www.w3.org/2000/svg" width="20" height="20" fill="currentColor" viewBox="0 0 16 16"><path d="M6.354 5.5H4a3 3 0 0 0 0 6h3a3 3 0 0 0 2.83-4H9c-.086 0-.17.01-.25.031A2 2 0 0 1 7 10.5H4a2 2 0 1 1 0-4h1.535c.218-.376.495-.714.82-1z"></path><path d="M9 5.5a3 3 0 0 0-2.83 4h1.098A2 2 0 0 1 9 6.5h3a2 2 0 1 1 0 4h-1.535a4.02 4.02 0 0 1-.82 1H12a3 3 0 1 0 0-6H9z"></path></svg></g></g><image  id="v-18933"></image></g></g><!--z-index:30--><g   id="j_1388"  transform="translate(2219,719)" style=""><g  id="v-18937" style="opacity: 1;"><rect  id="v-18938" rx="1" ry="1" stroke-width="2" pointer-events="visiblePainted" fill="#eef5fa" stroke="#57718a" stroke-dasharray="" width="360" height="220" style="fill: rgb(238, 245, 250); stroke: rgb(87, 113, 138);"></rect><text  id="v-18939" font-size="30.799999999999997px" xml:space="preserve" y="51.2" font-weight="bold" text-anchor="middle" pointer-events="visible" font-family="Tahoma, Verdana, Helvetica, Arial" fill="#122c43" dominant-baseline="hanging" transform="matrix(1,0,0,1,180,0)" style="fill: rgb(18, 44, 67);"><tspan dy="0" >RPC backend</tspan></text><text  id="v-18940" font-size="15.399999999999999px" xml:space="preserve" y="90" text-anchor="middle" font-family="Tahoma, Verdana, Helvetica, Arial" fill="#122c43" dominant-baseline="hanging" transform="matrix(1,0,0,1,180,0)" style="display: block; fill: rgb(18, 44, 67);"><tspan dy="0" >[Component: Go]</tspan></text><text  id="v-18941" font-size="22px" xml:space="preserve" y="120.39999999999999" text-anchor="middle" font-family="Tahoma, Verdana, Helvetica, Arial" fill="#122c43" dominant-baseline="hanging" transform="matrix(1,0,0,1,180,0)" style="display: block; fill: rgb(18, 44, 67);"><tspan dy="0" >Forwards signed raw</tspan><tspan dy="1.2em" x="0" >transactions to Besu.</tspan></text><g  id="v-18942" color="#122c43" transform="matrix(1,0,0,1,165,188)" display="none" style="fill: rgb(18, 44, 67);"><g ></g><g ></g><g ></g><g  transform="translate(5 0)"><svg xmlns="http://www.w3.org/2000/svg" width="20" height="20" fill="currentColor" viewBox="0 0 16 16"><path d="M6.354 5.5H4a3 3 0 0 0 0 6h3a3 3 0 0 0 2.83-4H9c-.086 0-.17.01-.25.031A2 2 0 0 1 7 10.5H4a2 2 0 1 1 0-4h1.535c.218-.376.495-.714.82-1z"></path><path d="M9 5.5a3 3 0 0 0-2.83 4h1.098A2 2 0 0 1 9 6.5h3a2 2 0 1 1 0 4h-1.535a4.02 4.02 0 0 1-.82 1H12a3 3 0 1 0 0-6H9z"></path></svg></g></g><image  id="v-18943"></image></g></g><!--z-index:31--><g   id="j_1391"  transform="translate(3309,1659)" style="; opacity: 1;"><g id="v-18977"><rect  id="v-18978" width="460" height="399" rx="0" ry="0" stroke-width="2" pointer-events="none" stroke="#9b782e" fill="#ffffff" opacity="1" stroke-dasharray=""></rect><text  id="v-18979" font-size="33.599999999999994px" xml:space="preserve" y="360" font-weight="bold" text-anchor="start" pointer-events="visible" font-family="Tahoma, Verdana, Helvetica, Arial" fill="#122c43" transform="matrix(1,0,0,1,15,0)"><tspan dy="0" >Private Besu network</tspan></text><text  id="v-18980" font-size="16.799999999999997px" xml:space="preserve" y="384" font-weight="normal" text-anchor="start" pointer-events="visible" font-family="Tahoma, Verdana, Helvetica, Arial" fill="#122c43" transform="matrix(1,0,0,1,15,0)"><tspan dy="0" >[Software System]</tspan></text><image  id="v-18981" pointer-events="visible"></image></g></g><!--z-index:32--><g   id="j_1390"  transform="translate(3359,1709)" style=""><g  id="v-18970" style="opacity: 1;"><rect  id="v-18971" rx="1" ry="1" stroke-width="2" pointer-events="visiblePainted" fill="#efe4c8" stroke="#9b782e" stroke-dasharray="" width="360" height="220" style="fill: rgb(239, 228, 200); stroke: rgb(155, 120, 46);"></rect><text  id="v-18972" font-size="30.799999999999997px" xml:space="preserve" y="38" font-weight="bold" text-anchor="middle" pointer-events="visible" font-family="Tahoma, Verdana, Helvetica, Arial" fill="#122c43" dominant-baseline="hanging" transform="matrix(1,0,0,1,180,0)" style="fill: rgb(18, 44, 67);"><tspan dy="0" >Besu RPC node 1</tspan></text><text  id="v-18973" font-size="15.399999999999999px" xml:space="preserve" y="76.8" text-anchor="middle" font-family="Tahoma, Verdana, Helvetica, Arial" fill="#122c43" dominant-baseline="hanging" transform="matrix(1,0,0,1,180,0)" style="display: block; fill: rgb(18, 44, 67);"><tspan dy="0" >[Container: Java / Besu / RocksDB]</tspan></text><text  id="v-18974" font-size="22px" xml:space="preserve" y="107.19999999999999" text-anchor="middle" font-family="Tahoma, Verdana, Helvetica, Arial" fill="#122c43" dominant-baseline="hanging" transform="matrix(1,0,0,1,180,0)" style="display: block; fill: rgb(18, 44, 67);"><tspan dy="0" >Serves private JSON-RPC</tspan><tspan dy="1.2em" x="0" >and syncs blocks; owner</tspan><tspan dy="1.2em" x="0" >CONSORTIUM; AZ 1.</tspan></text><g  id="v-18975" color="#122c43" transform="matrix(1,0,0,1,152.5,188)" display="none" style="fill: rgb(18, 44, 67);"><g  transform="translate(5 0)"><svg xmlns="http://www.w3.org/2000/svg" width="20" height="20" fill="currentColor" viewBox="0 0 16 16"><path fill-rule="evenodd" d="M6.5 12a5.5 5.5 0 1 0 0-11 5.5 5.5 0 0 0 0 11zM13 6.5a6.5 6.5 0 1 1-13 0 6.5 6.5 0 0 1 13 0z"></path><path d="M10.344 11.742c.03.04.062.078.098.115l3.85 3.85a1 1 0 0 0 1.415-1.414l-3.85-3.85a1.007 1.007 0 0 0-.115-.1 6.538 6.538 0 0 1-1.398 1.4z"></path><path fill-rule="evenodd" d="M6.5 3a.5.5 0 0 1 .5.5V6h2.5a.5.5 0 0 1 0 1H7v2.5a.5.5 0 0 1-1 0V7H3.5a.5.5 0 0 1 0-1H6V3.5a.5.5 0 0 1 .5-.5z"></path></svg></g><g ></g><g ></g><g  transform="translate(30 0)"><svg xmlns="http://www.w3.org/2000/svg" width="20" height="20" fill="currentColor" viewBox="0 0 16 16"><path d="M6.354 5.5H4a3 3 0 0 0 0 6h3a3 3 0 0 0 2.83-4H9c-.086 0-.17.01-.25.031A2 2 0 0 1 7 10.5H4a2 2 0 1 1 0-4h1.535c.218-.376.495-.714.82-1z"></path><path d="M9 5.5a3 3 0 0 0-2.83 4h1.098A2 2 0 0 1 9 6.5h3a2 2 0 1 1 0 4h-1.535a4.02 4.02 0 0 1-.82 1H12a3 3 0 1 0 0-6H9z"></path></svg></g></g><image  id="v-18976"></image></g></g><!--z-index:33--><g   id="j_1392"  style="opacity: 1;"><path fill="none" cursor="pointer" stroke="transparent" stroke-linecap="round" joint-selector="wrapper" id="v-18996" stroke-width="10" stroke-linejoin="round" d="M 2579 829 L 3169 829 C 3175.666666666666 829 3178.9999999999995 829 3179 829 L 3179 829 C 3178.9999999999995 829.0666666666666 3178.9999999999995 832.3999999999999 3179 839 L 3179 1809 C 3178.9999999999995 1815.6666666666665 3182.333333333333 1818.9999999999998 3189 1819 L 3359 1819"></path><path fill="none" pointer-events="none" joint-selector="line" id="v-18995" stroke="#476177" stroke-width="2" stroke-linejoin="round" stroke-dasharray="" d="M 2579 829 L 3169 829 C 3175.666666666666 829 3178.9999999999995 829 3179 829 L 3179 829 C 3178.9999999999995 829.0666666666666 3178.9999999999995 832.3999999999999 3179 839 L 3179 1809 C 3178.9999999999995 1815.6666666666665 3182.333333333333 1818.9999999999998 3189 1819 L 3359 1819" marker-end="url(#v-21867269473)"></path><g id="v-18985" ><g id="v-18986"  label-idx="0" cursor="move" transform="matrix(1,0,0,1,2923.882568359375,817.7000122070312)" style="cursor: default;"><rect joint-selector="rect" id="v-18990" fill="#ffffff" rx="3" ry="3" x="-90.90711212158203" y="-22.066665649414062" width="181.81422424316406" height="41.0444450378418" pointer-events="none"  style="display: block;"></rect><text joint-selector="text" id="v-18989" font-size="18px" xml:space="preserve" fill="#476177" text-anchor="middle" pointer-events="none" font-family="Tahoma, Verdana, Helvetica, Arial" font-weight="normal"  style="display: block;"><tspan dy="-0.3em" >Submits raw</tspan><tspan dy="1.2em" x="0" >transactions and reads</tspan></text></g><g id="v-18987"  label-idx="1" cursor="move" transform="matrix(1,0,0,1,2923.882568359375,853.7999877929688)" style="cursor: default;"><rect joint-selector="rect" id="v-18992" fill="#ffffff" rx="3" ry="3" x="-53.66753387451172" y="-7.331110000610352" width="107.33506774902344" height="13.888888359069824"  pointer-events="none" style="display: block;"></rect><text joint-selector="text" id="v-18991" font-size="12.6px" xml:space="preserve" fill="#476177" text-anchor="middle" pointer-events="none" font-family="Tahoma, Verdana, Helvetica, Arial" font-weight="normal"  style="display: block;"><tspan dy="0.3em" >[HTTP JSON-RPC]</tspan></text></g><g id="v-18988"  label-idx="2" cursor="move" transform="matrix(1,0,0,1,3169,1143.21533203125)" style="cursor: default;"><rect joint-selector="rect" id="v-18994" fill="#ffffff" rx="3" ry="3" x="0" y="0" width="0" height="0"  display="none"></rect><text joint-selector="text" id="v-18993" fill="#000000" font-size="14" text-anchor="middle" text-vertical-anchor="middle" pointer-events="none"></text></g></g></g><!--z-index:34--><g   id="j_1393"  style="opacity: 1;"><path fill="none" cursor="pointer" stroke="transparent" stroke-linecap="round" joint-selector="wrapper" id="v-19014" stroke-width="10" stroke-linejoin="round" d="M 479 509 L 479 286 C 479 279.3666666666666 482.3333333333333 276.0333333333333 489 276 L 949 276 C 955.6666666666665 276.0333333333333 962.3333333333333 276.0333333333333 969 276 L 1909 276 C 1915.6666666666665 276.0333333333333 1922.3333333333333 276.0333333333333 1929 276 L 2389 276 C 2395.6666666666665 276.0333333333333 2399 279.3666666666666 2399 286 L 2399 299"></path><path fill="none" pointer-events="none" joint-selector="line" id="v-19013" stroke="#476177" stroke-width="2" stroke-linejoin="round" stroke-dasharray="" d="M 479 509 L 479 286 C 479 279.3666666666666 482.3333333333333 276.0333333333333 489 276 L 949 276 C 955.6666666666665 276.0333333333333 962.3333333333333 276.0333333333333 969 276 L 1909 276 C 1915.6666666666665 276.0333333333333 1922.3333333333333 276.0333333333333 1929 276 L 2389 276 C 2395.6666666666665 276.0333333333333 2399 279.3666666666666 2399 286 L 2399 299" marker-end="url(#v-21867269473)"></path><g id="v-19003" ><g id="v-19004"  label-idx="0" cursor="move" transform="matrix(1,0,0,1,1392.0281982421875,264.70001220703125)" style="cursor: default;"><rect joint-selector="rect" id="v-19008" fill="#ffffff" rx="3" ry="3" x="-79.42707824707031" y="-22.066665649414062" width="159.93235778808594" height="43.82222366333008" pointer-events="none"  style="display: block;"></rect><text joint-selector="text" id="v-19007" font-size="18px" xml:space="preserve" fill="#476177" text-anchor="middle" pointer-events="none" font-family="Tahoma, Verdana, Helvetica, Arial" font-weight="normal"  style="display: block;"><tspan dy="-0.3em" >Resolves requested</tspan><tspan dy="1.2em" x="0" >signing accounts</tspan></text></g><g id="v-19005"  label-idx="1" cursor="move" transform="matrix(1,0,0,1,1392.0281982421875,300.79998779296875)" style="cursor: default;"><rect joint-selector="rect" id="v-19010" fill="#ffffff" rx="3" ry="3" x="-60.65538024902344" y="-7.331110000610352" width="121.31076049804688" height="13.888888359069824"  pointer-events="none" style="display: block;"></rect><text joint-selector="text" id="v-19009" font-size="12.6px" xml:space="preserve" fill="#476177" text-anchor="middle" pointer-events="none" font-family="Tahoma, Verdana, Helvetica, Arial" font-weight="normal"  style="display: block;"><tspan dy="0.3em" >[In-process calls / Go]</tspan></text></g><g id="v-19006"  label-idx="2" cursor="move" transform="matrix(1,0,0,1,1324,307.1000061035156)" style="cursor: default;"><rect joint-selector="rect" id="v-19012" fill="#ffffff" rx="3" ry="3" x="0" y="0" width="0" height="0"  display="none"></rect><text joint-selector="text" id="v-19011" fill="#000000" font-size="14" text-anchor="middle" text-vertical-anchor="middle" pointer-events="none"></text></g></g></g><!--z-index:35--><g   id="j_1394"  style="opacity: 1;"><path fill="none" cursor="pointer" stroke="transparent" stroke-linecap="round" joint-selector="wrapper" id="v-19032" stroke-width="10" stroke-linejoin="round" d="M 2579 409 L 2869 409 C 2875.6666666666665 408.99999999999994 2879 405.66666666666663 2879 399 L 2879 363 C 2879 356.33333333333326 2879 352.6666666666666 2879 352 L 2879 352 C 2879 352 2882.333333333333 352 2889 352 L 3359 352"></path><path fill="none" pointer-events="none" joint-selector="line" id="v-19031" stroke="#476177" stroke-width="2" stroke-linejoin="round" stroke-dasharray="" d="M 2579 409 L 2869 409 C 2875.6666666666665 408.99999999999994 2879 405.66666666666663 2879 399 L 2879 363 C 2879 356.33333333333326 2879 352.6666666666666 2879 352 L 2879 352 C 2879 352 2882.333333333333 352 2889 352 L 3359 352" marker-end="url(#v-21867269473)"></path><g id="v-19021" ><g id="v-19022"  label-idx="0" cursor="move" transform="matrix(1,0,0,1,2879,372.1184387207031)" style="cursor: default;"><rect joint-selector="rect" id="v-19026" fill="#ffffff" rx="3" ry="3" x="-87.890625" y="-22.066665649414062" width="177.892333984375" height="41.0444450378418" pointer-events="none"  style="display: block;"></rect><text joint-selector="text" id="v-19025" font-size="18px" xml:space="preserve" fill="#476177" text-anchor="middle" pointer-events="none" font-family="Tahoma, Verdana, Helvetica, Arial" font-weight="normal"  style="display: block;"><tspan dy="-0.3em" >Decrypts selected key</tspan><tspan dy="1.2em" x="0" >material</tspan></text></g><g id="v-19023"  label-idx="1" cursor="move" transform="matrix(1,0,0,1,2879,408.21844482421875)" style="cursor: default;"><rect joint-selector="rect" id="v-19028" fill="#ffffff" rx="3" ry="3" x="-60.65538024902344" y="-7.331110000610352" width="121.31076049804688" height="13.888888359069824"  pointer-events="none" style="display: block;"></rect><text joint-selector="text" id="v-19027" font-size="12.6px" xml:space="preserve" fill="#476177" text-anchor="middle" pointer-events="none" font-family="Tahoma, Verdana, Helvetica, Arial" font-weight="normal"  style="display: block;"><tspan dy="0.3em" >[In-process calls / Go]</tspan></text></g><g id="v-19024"  label-idx="2" cursor="move" transform="matrix(1,0,0,1,2932.384765625,383.1000061035156)" style="cursor: default;"><rect joint-selector="rect" id="v-19030" fill="#ffffff" rx="3" ry="3" x="0" y="0" width="0" height="0"  display="none"></rect><text joint-selector="text" id="v-19029" fill="#000000" font-size="14" text-anchor="middle" text-vertical-anchor="middle" pointer-events="none"></text></g></g></g><!--z-index:36--><g   id="j_1395"  style="opacity: 1;"><path fill="none" cursor="pointer" stroke="transparent" stroke-linecap="round" joint-selector="wrapper" id="v-19050" stroke-width="10" stroke-linejoin="round" d="M 659 619 L 1259 619"></path><path fill="none" pointer-events="none" joint-selector="line" id="v-19049" stroke="#476177" stroke-width="2" stroke-linejoin="round" stroke-dasharray="" d="M 659 619 L 1259 619" marker-end="url(#v-21867269473)"></path><g id="v-19039" ><g id="v-19040"  label-idx="0" cursor="move" transform="matrix(1,0,0,1,959,607.7000122070312)" style="cursor: default;"><rect joint-selector="rect" id="v-19044" fill="#ffffff" rx="3" ry="3" x="-96.37586212158203" y="-22.066665649414062" width="195.09251403808594" height="43.82222366333008" pointer-events="none"  style="display: block;"></rect><text joint-selector="text" id="v-19043" font-size="18px" xml:space="preserve" fill="#476177" text-anchor="middle" pointer-events="none" font-family="Tahoma, Verdana, Helvetica, Arial" font-weight="normal"  style="display: block;"><tspan dy="-0.3em" >Submits transactions for</tspan><tspan dy="1.2em" x="0" >signing</tspan></text></g><g id="v-19041"  label-idx="1" cursor="move" transform="matrix(1,0,0,1,959,643.7999877929688)" style="cursor: default;"><rect joint-selector="rect" id="v-19046" fill="#ffffff" rx="3" ry="3" x="-60.65538024902344" y="-7.331110000610352" width="121.31076049804688" height="13.888888359069824"  pointer-events="none" style="display: block;"></rect><text joint-selector="text" id="v-19045" font-size="12.6px" xml:space="preserve" fill="#476177" text-anchor="middle" pointer-events="none" font-family="Tahoma, Verdana, Helvetica, Arial" font-weight="normal"  style="display: block;"><tspan dy="0.3em" >[In-process calls / Go]</tspan></text></g><g id="v-19042"  label-idx="2" cursor="move" transform="matrix(1,0,0,1,949,650.0999755859375)" style="cursor: default;"><rect joint-selector="rect" id="v-19048" fill="#ffffff" rx="3" ry="3" x="0" y="0" width="0" height="0"  display="none"></rect><text joint-selector="text" id="v-19047" fill="#000000" font-size="14" text-anchor="middle" text-vertical-anchor="middle" pointer-events="none"></text></g></g></g><!--z-index:37--><g   id="j_1396"  style="opacity: 1;"><path fill="none" cursor="pointer" stroke="transparent" stroke-linecap="round" joint-selector="wrapper" id="v-19068" stroke-width="10" stroke-linejoin="round" d="M 1619 619 L 1909 619 C 1915.6666666666665 619 1919 615.6666666666666 1919 609 L 1919 573 C 1919 566.3333333333333 1919 559.6666666666665 1919 553 L 1919 419 C 1919 412.33333333333326 1922.3333333333333 408.99999999999994 1929 409 L 2219 409"></path><path fill="none" pointer-events="none" joint-selector="line" id="v-19067" stroke="#476177" stroke-width="2" stroke-linejoin="round" stroke-dasharray="" d="M 1619 619 L 1909 619 C 1915.6666666666665 619 1919 615.6666666666666 1919 609 L 1919 573 C 1919 566.3333333333333 1919 559.6666666666665 1919 553 L 1919 419 C 1919 412.33333333333326 1922.3333333333333 408.99999999999994 1929 409 L 2219 409" marker-end="url(#v-21867269473)"></path><g id="v-19057" ><g id="v-19058"  label-idx="0" cursor="move" transform="matrix(1,0,0,1,1919,511.1532287597656)" style="cursor: default;"><rect joint-selector="rect" id="v-19062" fill="#ffffff" rx="3" ry="3" x="-88.91058349609375" y="-22.066665649414062" width="178.9013214111328" height="43.82222366333008" pointer-events="none"  style="display: block;"></rect><text joint-selector="text" id="v-19061" font-size="18px" xml:space="preserve" fill="#476177" text-anchor="middle" pointer-events="none" font-family="Tahoma, Verdana, Helvetica, Arial" font-weight="normal"  style="display: block;"><tspan dy="-0.3em" >Retrieves the selected</tspan><tspan dy="1.2em" x="0" >signing key</tspan></text></g><g id="v-19059"  label-idx="1" cursor="move" transform="matrix(1,0,0,1,1919,547.2532348632812)" style="cursor: default;"><rect joint-selector="rect" id="v-19064" fill="#ffffff" rx="3" ry="3" x="-60.65538024902344" y="-7.331110000610352" width="121.31076049804688" height="13.888888359069824"  pointer-events="none" style="display: block;"></rect><text joint-selector="text" id="v-19063" font-size="12.6px" xml:space="preserve" fill="#476177" text-anchor="middle" pointer-events="none" font-family="Tahoma, Verdana, Helvetica, Arial" font-weight="normal"  style="display: block;"><tspan dy="0.3em" >[In-process calls / Go]</tspan></text></g><g id="v-19060"  label-idx="2" cursor="move" transform="matrix(1,0,0,1,1909,545.0999755859375)" style="cursor: default;"><rect joint-selector="rect" id="v-19066" fill="#ffffff" rx="3" ry="3" x="0" y="0" width="0" height="0"  display="none"></rect><text joint-selector="text" id="v-19065" fill="#000000" font-size="14" text-anchor="middle" text-vertical-anchor="middle" pointer-events="none"></text></g></g></g><!--z-index:38--><g   id="j_1397"  style="opacity: 1;"><path fill="none" cursor="pointer" stroke="transparent" stroke-linecap="round" joint-selector="wrapper" id="v-19086" stroke-width="10" stroke-linejoin="round" d="M 1619 619 L 1909 619 C 1915.6666666666665 619 1919 622.3333333333333 1919 629 L 1919 665 C 1919 671.7999999999998 1919 678.4666666666665 1919 685 L 1919 819 C 1919 825.6666666666666 1922.3333333333333 829 1929 829 L 2219 829"></path><path fill="none" pointer-events="none" joint-selector="line" id="v-19085" stroke="#476177" stroke-width="2" stroke-linejoin="round" stroke-dasharray="" d="M 1619 619 L 1909 619 C 1915.6666666666665 619 1919 622.3333333333333 1919 629 L 1919 665 C 1919 671.7999999999998 1919 678.4666666666665 1919 685 L 1919 819 C 1919 825.6666666666666 1922.3333333333333 829 1929 829 L 2219 829" marker-end="url(#v-21867269473)"></path><g id="v-19075" ><g id="v-19076"  label-idx="0" cursor="move" transform="matrix(1,0,0,1,1919,704.2467651367188)" style="cursor: default;"><rect joint-selector="rect" id="v-19080" fill="#ffffff" rx="3" ry="3" x="-78.40711212158203" y="-22.066665649414062" width="157.70907592773438" height="41.0444450378418" pointer-events="none"  style="display: block;"></rect><text joint-selector="text" id="v-19079" font-size="18px" xml:space="preserve" fill="#476177" text-anchor="middle" pointer-events="none" font-family="Tahoma, Verdana, Helvetica, Arial" font-weight="normal"  style="display: block;"><tspan dy="-0.3em" >Submits signed raw</tspan><tspan dy="1.2em" x="0" >transactions</tspan></text></g><g id="v-19077"  label-idx="1" cursor="move" transform="matrix(1,0,0,1,1919,740.3468017578125)" style="cursor: default;"><rect joint-selector="rect" id="v-19082" fill="#ffffff" rx="3" ry="3" x="-60.65538024902344" y="-7.331110000610352" width="121.31076049804688" height="13.888888359069824"  pointer-events="none" style="display: block;"></rect><text joint-selector="text" id="v-19081" font-size="12.6px" xml:space="preserve" fill="#476177" text-anchor="middle" pointer-events="none" font-family="Tahoma, Verdana, Helvetica, Arial" font-weight="normal"  style="display: block;"><tspan dy="0.3em" >[In-process calls / Go]</tspan></text></g><g id="v-19078"  label-idx="2" cursor="move" transform="matrix(1,0,0,1,1909,755.0999755859375)" style="cursor: default;"><rect joint-selector="rect" id="v-19084" fill="#ffffff" rx="3" ry="3" x="0" y="0" width="0" height="0"  display="none"></rect><text joint-selector="text" id="v-19083" fill="#000000" font-size="14" text-anchor="middle" text-vertical-anchor="middle" pointer-events="none"></text></g></g></g><!--z-index:39--><g   id="j_1398"  style="opacity: 1;"><path fill="none" cursor="pointer" stroke="transparent" stroke-linecap="round" joint-selector="wrapper" id="v-19104" stroke-width="10" stroke-linejoin="round" d="M 479 729 L 479 896 C 479 902.6999999999999 482.3333333333333 906.0333333333333 489 906 L 949 906 C 955.6666666666665 906.0333333333333 962.3333333333333 906.0333333333333 969 906 L 1909 906 C 1915.6666666666665 906.0333333333333 1919 902.6999999999999 1919 896 L 1919 839 C 1919 832.3333333333333 1922.3333333333333 829 1929 829 L 2219 829"></path><path fill="none" pointer-events="none" joint-selector="line" id="v-19103" stroke="#476177" stroke-width="2" stroke-linejoin="round" stroke-dasharray="" d="M 479 729 L 479 896 C 479 902.6999999999999 482.3333333333333 906.0333333333333 489 906 L 949 906 C 955.6666666666665 906.0333333333333 962.3333333333333 906.0333333333333 969 906 L 1909 906 C 1915.6666666666665 906.0333333333333 1919 902.6999999999999 1919 896 L 1919 839 C 1919 832.3333333333333 1922.3333333333333 829 1929 829 L 2219 829" marker-end="url(#v-21867269473)"></path><g id="v-19093" ><g id="v-19094"  label-idx="0" cursor="move" transform="matrix(1,0,0,1,1325.1903076171875,894.7000122070312)" style="cursor: default;"><rect joint-selector="rect" id="v-19098" fill="#ffffff" rx="3" ry="3" x="-83.89756774902344" y="-22.066665649414062" width="168.89918518066406" height="43.82222366333008" pointer-events="none"  style="display: block;"></rect><text joint-selector="text" id="v-19097" font-size="18px" xml:space="preserve" fill="#476177" text-anchor="middle" pointer-events="none" font-family="Tahoma, Verdana, Helvetica, Arial" font-weight="normal"  style="display: block;"><tspan dy="-0.3em" >Forwards unmodified</tspan><tspan dy="1.2em" x="0" >RPC read requests</tspan></text></g><g id="v-19095"  label-idx="1" cursor="move" transform="matrix(1,0,0,1,1325.1903076171875,930.7999877929688)" style="cursor: default;"><rect joint-selector="rect" id="v-19100" fill="#ffffff" rx="3" ry="3" x="-60.65538024902344" y="-7.331110000610352" width="121.31076049804688" height="13.888888359069824"  pointer-events="none" style="display: block;"></rect><text joint-selector="text" id="v-19099" font-size="12.6px" xml:space="preserve" fill="#476177" text-anchor="middle" pointer-events="none" font-family="Tahoma, Verdana, Helvetica, Arial" font-weight="normal"  style="display: block;"><tspan dy="0.3em" >[In-process calls / Go]</tspan></text></g><g id="v-19096"  label-idx="2" cursor="move" transform="matrix(1,0,0,1,1287.115234375,937.0999755859375)" style="cursor: default;"><rect joint-selector="rect" id="v-19102" fill="#ffffff" rx="3" ry="3" x="0" y="0" width="0" height="0"  display="none"></rect><text joint-selector="text" id="v-19101" fill="#000000" font-size="14" text-anchor="middle" text-vertical-anchor="middle" pointer-events="none"></text></g></g></g><!--z-index:40--><g   id="j_1399"  style="opacity: 1;"><path fill="none" cursor="pointer" stroke="transparent" stroke-linecap="round" joint-selector="wrapper" id="v-19122" stroke-width="10" stroke-linejoin="round" d="M 2399 519 L 2399 553 C 2399 559.6666666666665 2402.333333333333 562.9999999999999 2409 563 L 2869 563 C 2875.6666666666665 562.9999999999999 2882.333333333333 562.9999999999999 2889 563 L 3169 563 C 3175.666666666666 562.9999999999999 3182.333333333333 562.9999999999999 3189 563 L 3529 563 C 3535.666666666666 562.9999999999999 3538.9999999999995 566.3333333333333 3539 573 L 3539 1189"></path><path fill="none" pointer-events="none" joint-selector="line" id="v-19121" stroke="#476177" stroke-width="2" stroke-linejoin="round" stroke-dasharray="" d="M 2399 519 L 2399 553 C 2399 559.6666666666665 2402.333333333333 562.9999999999999 2409 563 L 2869 563 C 2875.6666666666665 562.9999999999999 2882.333333333333 562.9999999999999 2889 563 L 3169 563 C 3175.666666666666 562.9999999999999 3182.333333333333 562.9999999999999 3189 563 L 3529 563 C 3535.666666666666 562.9999999999999 3538.9999999999995 566.3333333333333 3539 573 L 3539 1189" marker-end="url(#v-21867269473)"></path><g id="v-19111" ><g id="v-19112"  label-idx="0" cursor="move" transform="matrix(1,0,0,1,2791.5810546875,551.7000122070312)" style="cursor: default;"><rect joint-selector="rect" id="v-19116" fill="#ffffff" rx="3" ry="3" x="-72.41753387451172" y="-22.066665649414062" width="144.83506774902344" height="43.82222366333008" pointer-events="none"  style="display: block;"></rect><text joint-selector="text" id="v-19115" font-size="18px" xml:space="preserve" fill="#476177" text-anchor="middle" pointer-events="none" font-family="Tahoma, Verdana, Helvetica, Arial" font-weight="normal"  style="display: block;"><tspan dy="-0.3em" >Loads encrypted</tspan><tspan dy="1.2em" x="0" >account keystores</tspan></text></g><g id="v-19113"  label-idx="1" cursor="move" transform="matrix(1,0,0,1,2791.5810546875,587.7999877929688)" style="cursor: default;"><rect joint-selector="rect" id="v-19118" fill="#ffffff" rx="3" ry="3" x="-72.52603912353516" y="-7.331110000610352" width="145.0520782470703" height="13.888888359069824"  pointer-events="none" style="display: block;"></rect><text joint-selector="text" id="v-19117" font-size="12.6px" xml:space="preserve" fill="#476177" text-anchor="middle" pointer-events="none" font-family="Tahoma, Verdana, Helvetica, Arial" font-weight="normal"  style="display: block;"><tspan dy="0.3em" >[Read-only projected files]</tspan></text></g><g id="v-19114"  label-idx="2" cursor="move" transform="matrix(1,0,0,1,3250,594.0999755859375)" style="cursor: default;"><rect joint-selector="rect" id="v-19120" fill="#ffffff" rx="3" ry="3" x="-4.547473508864641e-13" y="0" width="0" height="0"  display="none"></rect><text joint-selector="text" id="v-19119" fill="#000000" font-size="14" text-anchor="middle" text-vertical-anchor="middle" pointer-events="none"></text></g></g></g><!--z-index:41--><!--z-index:42--><!--z-index:43--><!--z-index:44--><!--z-index:45--><!--z-index:46--><!--z-index:47--><!--z-index:48--><!--z-index:49--><!--z-index:50--><!--z-index:51--><!--z-index:52--><!--z-index:53--><!--z-index:54--><!--z-index:55--><!--z-index:56--><!--z-index:57--><!--z-index:58--><!--z-index:59--><!--z-index:60--><!--z-index:61--><!--z-index:62--><!--z-index:63--><!--z-index:64--><!--z-index:65--><!--z-index:66--><!--z-index:67--><!--z-index:68--><!--z-index:69--><!--z-index:70--><!--z-index:71--><!--z-index:72--><!--z-index:73--><!--z-index:74--><!--z-index:75--><!--z-index:76--><!--z-index:77--><!--z-index:78--><!--z-index:79--><!--z-index:80--><!--z-index:81--><!--z-index:82--><!--z-index:83--><!--z-index:84--><!--z-index:85--></g><g  style="user-select: none;"></g><g ></g><g  display="none"></g></g></svg>