<svg xmlns="http://www.w3.org/2000/svg" xmlns:xlink="http://www.w3.org/1999/xlink" version="1.1" width="2880" height="1874" style="width: 2880px; height: 1874px; background: #ffffff" viewBox="0 0 2880 1874"><style id="v-3" type="text/css">        .joint-element .scalable * {            vector-effect: non-scaling-stroke;        }    </style><defs joint-selector="defs"><marker id="v-21867269473" orient="auto" overflow="visible" markerUnits="userSpaceOnUse"><path id="v-139" stroke="#476177" fill="#476177" transform="rotate(180)" d="M 20 -10 0 0 20 10 Z"></path></marker><marker id="v-2-985808639" orient="auto" overflow="visible" markerUnits="userSpaceOnUse"><path id="v-171" stroke="#6d817a" fill="#6d817a" transform="rotate(180)" d="M 20 -10 0 0 20 10 Z"></path></marker><marker id="v-2-178010847" orient="auto" overflow="visible" markerUnits="userSpaceOnUse"><path id="v-943" stroke="#888888" fill="#888888" transform="rotate(180)" d="M 20 -10 0 0 20 10 Z"></path></marker></defs><g joint-selector="layers"  transform="matrix(1,0,0,1,0,0)"><g  style="pointer-events: none;"></g><g ></g><g  style="user-select: none;"><!--z-index:0--><!--z-index:1--><!--z-index:2--><!--z-index:3--><!--z-index:4--><!--z-index:5--><!--z-index:6--><!--z-index:7--><!--z-index:8--><!--z-index:9--><!--z-index:10--><!--z-index:11--><!--z-index:12--><!--z-index:13--><!--z-index:14--><!--z-index:15--><!--z-index:16--><g   id="j_526"  transform="translate(20,1830)"><g id="v-7044"><text  id="v-7045" font-size="24px" xml:space="preserve" y="0.8em" font-weight="normal" text-anchor="start" fill="#444444" pointer-events="none" display="block" font-family="Tahoma, Verdana, Helvetica, Arial"><tspan dy="0" >Tuesday, September 15, 2026 at 9:21 PM Coordinated Universal Time</tspan></text></g></g><!--z-index:17--><g   id="j_525"  transform="translate(20,1796)"><g id="v-7042"><text  id="v-7043" font-size="24px" xml:space="preserve" y="0.8em" font-weight="normal" text-anchor="start" fill="#444444" pointer-events="none" display="block" font-family="Tahoma, Verdana, Helvetica, Arial"><tspan dy="0" >Component - Besu node: Network and admission</tspan></text></g></g><!--z-index:18--><g   id="j_524"  transform="translate(20,1750)"><g id="v-7040"><text  id="v-7041" font-size="36px" xml:space="preserve" y="0.8em" font-weight="normal" text-anchor="start" fill="#444444" pointer-events="none" display="block" font-family="Tahoma, Verdana, Helvetica, Arial"><tspan dy="0" >Component - Besu node: Network and admission</tspan></text></g></g><!--z-index:19--><g   id="j_529"  transform="translate(199,142)" style="; opacity: 1;"><g id="v-7064"><rect  id="v-7065" width="2480" height="1475" rx="0" ry="0" stroke-width="2" pointer-events="none" stroke="#9b782e" fill="#ffffff" opacity="1" stroke-dasharray=""></rect><text  id="v-7066" font-size="33.599999999999994px" xml:space="preserve" y="1436" font-weight="bold" text-anchor="start" pointer-events="visible" font-family="Tahoma, Verdana, Helvetica, Arial" fill="#122c43" transform="matrix(1,0,0,1,15,0)"><tspan dy="0" >Private Besu network</tspan></text><text  id="v-7067" font-size="16.799999999999997px" xml:space="preserve" y="1460" font-weight="normal" text-anchor="start" pointer-events="visible" font-family="Tahoma, Verdana, Helvetica, Arial" fill="#122c43" transform="matrix(1,0,0,1,15,0)"><tspan dy="0" >[Software System]</tspan></text><image  id="v-7068" pointer-events="visible"></image></g></g><!--z-index:20--><g   id="j_528"  transform="translate(249,192)" style="; opacity: 1;"><g id="v-7059"><rect  id="v-7060" width="2380" height="1296" rx="0" ry="0" stroke-width="2" pointer-events="none" stroke="#9b782e" fill="#ffffff" opacity="1" stroke-dasharray=""></rect><text  id="v-7061" font-size="33.599999999999994px" xml:space="preserve" y="1257" font-weight="bold" text-anchor="start" pointer-events="visible" font-family="Tahoma, Verdana, Helvetica, Arial" fill="#122c43" transform="matrix(1,0,0,1,15,0)"><tspan dy="0" >Besu node</tspan></text><text  id="v-7062" font-size="16.799999999999997px" xml:space="preserve" y="1281" font-weight="normal" text-anchor="start" pointer-events="visible" font-family="Tahoma, Verdana, Helvetica, Arial" fill="#122c43" transform="matrix(1,0,0,1,15,0)"><tspan dy="0" >[Container]</tspan></text><image  id="v-7063" pointer-events="visible"></image></g></g><!--z-index:21--><g   id="j_527"  transform="translate(1259,242)" style=""><g  id="v-7052" style="opacity: 1;"><rect  id="v-7053" rx="1" ry="1" stroke-width="2" pointer-events="visiblePainted" fill="#eef5fa" stroke="#57718a" stroke-dasharray="" width="360" height="220" style="fill: rgb(238, 245, 250); stroke: rgb(87, 113, 138);"></rect><text  id="v-7054" font-size="30.799999999999997px" xml:space="preserve" y="19.52000000000001" font-weight="bold" text-anchor="middle" pointer-events="visible" font-family="Tahoma, Verdana, Helvetica, Arial" fill="#122c43" dominant-baseline="hanging" transform="matrix(1,0,0,1,180,0)" style="fill: rgb(18, 44, 67);"><tspan dy="0" >JSON-RPC and</tspan><tspan dy="1.2em" x="0" >subscriptions</tspan></text><text  id="v-7055" font-size="15.399999999999999px" xml:space="preserve" y="95.28" text-anchor="middle" font-family="Tahoma, Verdana, Helvetica, Arial" fill="#122c43" dominant-baseline="hanging" transform="matrix(1,0,0,1,180,0)" style="display: block; fill: rgb(18, 44, 67);"><tspan dy="0" >[Component: Java]</tspan></text><text  id="v-7056" font-size="22px" xml:space="preserve" y="125.68" text-anchor="middle" font-family="Tahoma, Verdana, Helvetica, Arial" fill="#122c43" dominant-baseline="hanging" transform="matrix(1,0,0,1,180,0)" style="display: block; fill: rgb(18, 44, 67);"><tspan dy="0" >Accepts private-network</tspan><tspan dy="1.2em" x="0" >queries and signed</tspan><tspan dy="1.2em" x="0" >transactions.</tspan></text><g  id="v-7057" color="#122c43" transform="matrix(1,0,0,1,165,188)" display="none" style="fill: rgb(18, 44, 67);"><g ></g><g ></g><g ></g><g  transform="translate(5 0)"><svg xmlns="http://www.w3.org/2000/svg" width="20" height="20" fill="currentColor" viewBox="0 0 16 16"><path d="M6.354 5.5H4a3 3 0 0 0 0 6h3a3 3 0 0 0 2.83-4H9c-.086 0-.17.01-.25.031A2 2 0 0 1 7 10.5H4a2 2 0 1 1 0-4h1.535c.218-.376.495-.714.82-1z"></path><path d="M9 5.5a3 3 0 0 0-2.83 4h1.098A2 2 0 0 1 9 6.5h3a2 2 0 1 1 0 4h-1.535a4.02 4.02 0 0 1-.82 1H12a3 3 0 1 0 0-6H9z"></path></svg></g></g><image  id="v-7058"></image></g></g><!--z-index:22--><g   id="j_530"  transform="translate(2219,299)" style=""><g  id="v-7075" style="opacity: 1;"><rect  id="v-7076" rx="1" ry="1" stroke-width="2" pointer-events="visiblePainted" fill="#eef5fa" stroke="#57718a" stroke-dasharray="" width="360" height="220" style="fill: rgb(238, 245, 250); stroke: rgb(87, 113, 138);"></rect><text  id="v-7077" font-size="30.799999999999997px" xml:space="preserve" y="32.72" font-weight="bold" text-anchor="middle" pointer-events="visible" font-family="Tahoma, Verdana, Helvetica, Arial" fill="#122c43" dominant-baseline="hanging" transform="matrix(1,0,0,1,180,0)" style="fill: rgb(18, 44, 67);"><tspan dy="0" >Node and account</tspan><tspan dy="1.2em" x="0" >permissioning</tspan></text><text  id="v-7078" font-size="15.399999999999999px" xml:space="preserve" y="108.47999999999999" text-anchor="middle" font-family="Tahoma, Verdana, Helvetica, Arial" fill="#122c43" dominant-baseline="hanging" transform="matrix(1,0,0,1,180,0)" style="display: block; fill: rgb(18, 44, 67);"><tspan dy="0" >[Component: Java]</tspan></text><text  id="v-7079" font-size="22px" xml:space="preserve" y="138.88" text-anchor="middle" font-family="Tahoma, Verdana, Helvetica, Arial" fill="#122c43" dominant-baseline="hanging" transform="matrix(1,0,0,1,180,0)" style="display: block; fill: rgb(18, 44, 67);"><tspan dy="0" >Applies local peer and account</tspan><tspan dy="1.2em" x="0" >allowlists.</tspan></text><g  id="v-7080" color="#122c43" transform="matrix(1,0,0,1,165,188)" display="none" style="fill: rgb(18, 44, 67);"><g ></g><g ></g><g ></g><g  transform="translate(5 0)"><svg xmlns="http://www.w3.org/2000/svg" width="20" height="20" fill="currentColor" viewBox="0 0 16 16"><path d="M6.354 5.5H4a3 3 0 0 0 0 6h3a3 3 0 0 0 2.83-4H9c-.086 0-.17.01-.25.031A2 2 0 0 1 7 10.5H4a2 2 0 1 1 0-4h1.535c.218-.376.495-.714.82-1z"></path><path d="M9 5.5a3 3 0 0 0-2.83 4h1.098A2 2 0 0 1 9 6.5h3a2 2 0 1 1 0 4h-1.535a4.02 4.02 0 0 1-.82 1H12a3 3 0 1 0 0-6H9z"></path></svg></g></g><image  id="v-7081"></image></g></g><!--z-index:23--><g   id="j_531"  transform="translate(299,970)" style=""><g  id="v-7088" style="opacity: 1;"><rect  id="v-7089" rx="1" ry="1" stroke-width="2" pointer-events="visiblePainted" fill="#eef5fa" stroke="#57718a" stroke-dasharray="" width="360" height="220" style="fill: rgb(238, 245, 250); stroke: rgb(87, 113, 138);"></rect><text  id="v-7090" font-size="30.799999999999997px" xml:space="preserve" y="51.2" font-weight="bold" text-anchor="middle" pointer-events="visible" font-family="Tahoma, Verdana, Helvetica, Arial" fill="#122c43" dominant-baseline="hanging" transform="matrix(1,0,0,1,180,0)" style="fill: rgb(18, 44, 67);"><tspan dy="0" >Peer discovery</tspan></text><text  id="v-7091" font-size="15.399999999999999px" xml:space="preserve" y="90" text-anchor="middle" font-family="Tahoma, Verdana, Helvetica, Arial" fill="#122c43" dominant-baseline="hanging" transform="matrix(1,0,0,1,180,0)" style="display: block; fill: rgb(18, 44, 67);"><tspan dy="0" >[Component: Java]</tspan></text><text  id="v-7092" font-size="22px" xml:space="preserve" y="120.39999999999999" text-anchor="middle" font-family="Tahoma, Verdana, Helvetica, Arial" fill="#122c43" dominant-baseline="hanging" transform="matrix(1,0,0,1,180,0)" style="display: block; fill: rgb(18, 44, 67);"><tspan dy="0" >Discovers peers through</tspan><tspan dy="1.2em" x="0" >configured bootnodes.</tspan></text><g  id="v-7093" color="#122c43" transform="matrix(1,0,0,1,165,188)" display="none" style="fill: rgb(18, 44, 67);"><g ></g><g ></g><g ></g><g  transform="translate(5 0)"><svg xmlns="http://www.w3.org/2000/svg" width="20" height="20" fill="currentColor" viewBox="0 0 16 16"><path d="M6.354 5.5H4a3 3 0 0 0 0 6h3a3 3 0 0 0 2.83-4H9c-.086 0-.17.01-.25.031A2 2 0 0 1 7 10.5H4a2 2 0 1 1 0-4h1.535c.218-.376.495-.714.82-1z"></path><path d="M9 5.5a3 3 0 0 0-2.83 4h1.098A2 2 0 0 1 9 6.5h3a2 2 0 1 1 0 4h-1.535a4.02 4.02 0 0 1-.82 1H12a3 3 0 1 0 0-6H9z"></path></svg></g></g><image  id="v-7094"></image></g></g><!--z-index:24--><g   id="j_532"  transform="translate(1259,970)" style=""><g  id="v-7101" style="opacity: 1;"><rect  id="v-7102" rx="1" ry="1" stroke-width="2" pointer-events="visiblePainted" fill="#eef5fa" stroke="#57718a" stroke-dasharray="" width="360" height="220" style="fill: rgb(238, 245, 250); stroke: rgb(87, 113, 138);"></rect><text  id="v-7103" font-size="30.799999999999997px" xml:space="preserve" y="38" font-weight="bold" text-anchor="middle" pointer-events="visible" font-family="Tahoma, Verdana, Helvetica, Arial" fill="#122c43" dominant-baseline="hanging" transform="matrix(1,0,0,1,180,0)" style="fill: rgb(18, 44, 67);"><tspan dy="0" >DevP2P transport</tspan></text><text  id="v-7104" font-size="15.399999999999999px" xml:space="preserve" y="76.8" text-anchor="middle" font-family="Tahoma, Verdana, Helvetica, Arial" fill="#122c43" dominant-baseline="hanging" transform="matrix(1,0,0,1,180,0)" style="display: block; fill: rgb(18, 44, 67);"><tspan dy="0" >[Component: Java]</tspan></text><text  id="v-7105" font-size="22px" xml:space="preserve" y="107.19999999999999" text-anchor="middle" font-family="Tahoma, Verdana, Helvetica, Arial" fill="#122c43" dominant-baseline="hanging" transform="matrix(1,0,0,1,180,0)" style="display: block; fill: rgb(18, 44, 67);"><tspan dy="0" >Exchanges transactions,</tspan><tspan dy="1.2em" x="0" >blocks and consensus</tspan><tspan dy="1.2em" x="0" >messages.</tspan></text><g  id="v-7106" color="#122c43" transform="matrix(1,0,0,1,165,188)" display="none" style="fill: rgb(18, 44, 67);"><g ></g><g ></g><g ></g><g  transform="translate(5 0)"><svg xmlns="http://www.w3.org/2000/svg" width="20" height="20" fill="currentColor" viewBox="0 0 16 16"><path d="M6.354 5.5H4a3 3 0 0 0 0 6h3a3 3 0 0 0 2.83-4H9c-.086 0-.17.01-.25.031A2 2 0 0 1 7 10.5H4a2 2 0 1 1 0-4h1.535c.218-.376.495-.714.82-1z"></path><path d="M9 5.5a3 3 0 0 0-2.83 4h1.098A2 2 0 0 1 9 6.5h3a2 2 0 1 1 0 4h-1.535a4.02 4.02 0 0 1-.82 1H12a3 3 0 1 0 0-6H9z"></path></svg></g></g><image  id="v-7107"></image></g></g><!--z-index:25--><g   id="j_533"  transform="translate(2219,719)" style=""><g  id="v-7114" style="opacity: 1;"><rect  id="v-7115" rx="1" ry="1" stroke-width="2" pointer-events="visiblePainted" fill="#eef5fa" stroke="#57718a" stroke-dasharray="" width="360" height="220" style="fill: rgb(238, 245, 250); stroke: rgb(87, 113, 138);"></rect><text  id="v-7116" font-size="30.799999999999997px" xml:space="preserve" y="51.2" font-weight="bold" text-anchor="middle" pointer-events="visible" font-family="Tahoma, Verdana, Helvetica, Arial" fill="#122c43" dominant-baseline="hanging" transform="matrix(1,0,0,1,180,0)" style="fill: rgb(18, 44, 67);"><tspan dy="0" >Transaction pool</tspan></text><text  id="v-7117" font-size="15.399999999999999px" xml:space="preserve" y="90" text-anchor="middle" font-family="Tahoma, Verdana, Helvetica, Arial" fill="#122c43" dominant-baseline="hanging" transform="matrix(1,0,0,1,180,0)" style="display: block; fill: rgb(18, 44, 67);"><tspan dy="0" >[Component: Java]</tspan></text><text  id="v-7118" font-size="22px" xml:space="preserve" y="120.39999999999999" text-anchor="middle" font-family="Tahoma, Verdana, Helvetica, Arial" fill="#122c43" dominant-baseline="hanging" transform="matrix(1,0,0,1,180,0)" style="display: block; fill: rgb(18, 44, 67);"><tspan dy="0" >Validates and queues pending</tspan><tspan dy="1.2em" x="0" >transactions.</tspan></text><g  id="v-7119" color="#122c43" transform="matrix(1,0,0,1,165,188)" display="none" style="fill: rgb(18, 44, 67);"><g ></g><g ></g><g ></g><g  transform="translate(5 0)"><svg xmlns="http://www.w3.org/2000/svg" width="20" height="20" fill="currentColor" viewBox="0 0 16 16"><path d="M6.354 5.5H4a3 3 0 0 0 0 6h3a3 3 0 0 0 2.83-4H9c-.086 0-.17.01-.25.031A2 2 0 0 1 7 10.5H4a2 2 0 1 1 0-4h1.535c.218-.376.495-.714.82-1z"></path><path d="M9 5.5a3 3 0 0 0-2.83 4h1.098A2 2 0 0 1 9 6.5h3a2 2 0 1 1 0 4h-1.535a4.02 4.02 0 0 1-.82 1H12a3 3 0 1 0 0-6H9z"></path></svg></g></g><image  id="v-7120"></image></g></g><!--z-index:26--><g   id="j_534"  transform="translate(2219,1139)" style=""><g  id="v-7127" style="opacity: 1;"><rect  id="v-7128" rx="1" ry="1" stroke-width="2" pointer-events="visiblePainted" fill="#eef5fa" stroke="#57718a" stroke-dasharray="" width="360" height="220" style="fill: rgb(238, 245, 250); stroke: rgb(87, 113, 138);"></rect><text  id="v-7129" font-size="30.799999999999997px" xml:space="preserve" y="32.72" font-weight="bold" text-anchor="middle" pointer-events="visible" font-family="Tahoma, Verdana, Helvetica, Arial" fill="#122c43" dominant-baseline="hanging" transform="matrix(1,0,0,1,180,0)" style="fill: rgb(18, 44, 67);"><tspan dy="0" >Chain</tspan><tspan dy="1.2em" x="0" >synchronization</tspan></text><text  id="v-7130" font-size="15.399999999999999px" xml:space="preserve" y="108.47999999999999" text-anchor="middle" font-family="Tahoma, Verdana, Helvetica, Arial" fill="#122c43" dominant-baseline="hanging" transform="matrix(1,0,0,1,180,0)" style="display: block; fill: rgb(18, 44, 67);"><tspan dy="0" >[Component: Java]</tspan></text><text  id="v-7131" font-size="22px" xml:space="preserve" y="138.88" text-anchor="middle" font-family="Tahoma, Verdana, Helvetica, Arial" fill="#122c43" dominant-baseline="hanging" transform="matrix(1,0,0,1,180,0)" style="display: block; fill: rgb(18, 44, 67);"><tspan dy="0" >Downloads and validates</tspan><tspan dy="1.2em" x="0" >missing blocks and state.</tspan></text><g  id="v-7132" color="#122c43" transform="matrix(1,0,0,1,165,188)" display="none" style="fill: rgb(18, 44, 67);"><g ></g><g ></g><g ></g><g  transform="translate(5 0)"><svg xmlns="http://www.w3.org/2000/svg" width="20" height="20" fill="currentColor" viewBox="0 0 16 16"><path d="M6.354 5.5H4a3 3 0 0 0 0 6h3a3 3 0 0 0 2.83-4H9c-.086 0-.17.01-.25.031A2 2 0 0 1 7 10.5H4a2 2 0 1 1 0-4h1.535c.218-.376.495-.714.82-1z"></path><path d="M9 5.5a3 3 0 0 0-2.83 4h1.098A2 2 0 0 1 9 6.5h3a2 2 0 1 1 0 4h-1.535a4.02 4.02 0 0 1-.82 1H12a3 3 0 1 0 0-6H9z"></path></svg></g></g><image  id="v-7133"></image></g></g><!--z-index:27--><g   id="j_535"  style="opacity: 1;"><path fill="none" cursor="pointer" stroke="transparent" stroke-linecap="round" joint-selector="wrapper" id="v-7151" stroke-width="10" stroke-linejoin="round" d="M 1439 970 L 1439 727 C 1439 720.2666666666665 1442.3333333333333 716.9333333333332 1449 717 L 1909 717 C 1915.6666666666665 716.9333333333332 1922.3333333333333 716.9333333333332 1929 717 L 2389 717 C 2395.6666666666665 716.9333333333332 2399 713.5999999999999 2399 707 L 2399 519"></path><path fill="none" pointer-events="none" joint-selector="line" id="v-7150" stroke="#476177" stroke-width="2" stroke-linejoin="round" stroke-dasharray="" d="M 1439 970 L 1439 727 C 1439 720.2666666666665 1442.3333333333333 716.9333333333332 1449 717 L 1909 717 C 1915.6666666666665 716.9333333333332 1922.3333333333333 716.9333333333332 1929 717 L 2389 717 C 2395.6666666666665 716.9333333333332 2399 713.5999999999999 2399 707 L 2399 519" marker-end="url(#v-21867269473)"></path><g id="v-7140" ><g id="v-7141"  label-idx="0" cursor="move" transform="matrix(1,0,0,1,1939.4849853515625,705.7000122070312)" style="cursor: default;"><rect joint-selector="rect" id="v-7145" fill="#ffffff" rx="3" ry="3" x="-98.39409637451172" y="-22.066665649414062" width="197.90538024902344" height="41.0444450378418" pointer-events="none"  style="display: block;"></rect><text joint-selector="text" id="v-7144" font-size="18px" xml:space="preserve" fill="#476177" text-anchor="middle" pointer-events="none" font-family="Tahoma, Verdana, Helvetica, Arial" font-weight="normal"  style="display: block;"><tspan dy="-0.3em" >Checks connecting node</tspan><tspan dy="1.2em" x="0" >admission</tspan></text></g><g id="v-7142"  label-idx="1" cursor="move" transform="matrix(1,0,0,1,1939.4849853515625,741.7999877929688)" style="cursor: default;"><rect joint-selector="rect" id="v-7147" fill="#ffffff" rx="3" ry="3" x="-65.53819274902344" y="-7.331110000610352" width="131.07638549804688" height="13.888888359069824"  pointer-events="none" style="display: block;"></rect><text joint-selector="text" id="v-7146" font-size="12.6px" xml:space="preserve" fill="#476177" text-anchor="middle" pointer-events="none" font-family="Tahoma, Verdana, Helvetica, Arial" font-weight="normal"  style="display: block;"><tspan dy="0.3em" >[In-process calls / Java]</tspan></text></g><g id="v-7143"  label-idx="2" cursor="move" transform="matrix(1,0,0,1,1881.4625244140625,748.0999755859375)" style="cursor: default;"><rect joint-selector="rect" id="v-7149" fill="#ffffff" rx="3" ry="3" x="0" y="0" width="0" height="0"  display="none"></rect><text joint-selector="text" id="v-7148" fill="#000000" font-size="14" text-anchor="middle" text-vertical-anchor="middle" pointer-events="none"></text></g></g></g><!--z-index:28--><g   id="j_536"  style="opacity: 1;"><path fill="none" cursor="pointer" stroke="transparent" stroke-linecap="round" joint-selector="wrapper" id="v-7169" stroke-width="10" stroke-linejoin="round" d="M 1619 352 L 1909 352 C 1915.6666666666665 352 1919 348.66666666666663 1919 342 L 1919 286 C 1919 279.36666666666656 1922.3333333333333 276.0333333333332 1929 276 L 2389 276 C 2395.6666666666665 276.0333333333332 2399 279.36666666666656 2399 286 L 2399 299"></path><path fill="none" pointer-events="none" joint-selector="line" id="v-7168" stroke="#476177" stroke-width="2" stroke-linejoin="round" stroke-dasharray="" d="M 1619 352 L 1909 352 C 1915.6666666666665 352 1919 348.66666666666663 1919 342 L 1919 286 C 1919 279.36666666666656 1922.3333333333333 276.0333333333332 1929 276 L 2389 276 C 2395.6666666666665 276.0333333333332 2399 279.36666666666656 2399 286 L 2399 299" marker-end="url(#v-21867269473)"></path><g id="v-7158" ><g id="v-7159"  label-idx="0" cursor="move" transform="matrix(1,0,0,1,1979.108642578125,264.70001220703125)" style="cursor: default;"><rect joint-selector="rect" id="v-7163" fill="#ffffff" rx="3" ry="3" x="-76.41059112548828" y="-22.066665649414062" width="153.92230224609375" height="41.0444450378418" pointer-events="none"  style="display: block;"></rect><text joint-selector="text" id="v-7162" font-size="18px" xml:space="preserve" fill="#476177" text-anchor="middle" pointer-events="none" font-family="Tahoma, Verdana, Helvetica, Arial" font-weight="normal"  style="display: block;"><tspan dy="-0.3em" >Checks transaction</tspan><tspan dy="1.2em" x="0" >sender admission</tspan></text></g><g id="v-7160"  label-idx="1" cursor="move" transform="matrix(1,0,0,1,1979.108642578125,300.79998779296875)" style="cursor: default;"><rect joint-selector="rect" id="v-7165" fill="#ffffff" rx="3" ry="3" x="-65.53819274902344" y="-7.331110000610352" width="131.07638549804688" height="13.888888359069824"  pointer-events="none" style="display: block;"></rect><text joint-selector="text" id="v-7164" font-size="12.6px" xml:space="preserve" fill="#476177" text-anchor="middle" pointer-events="none" font-family="Tahoma, Verdana, Helvetica, Arial" font-weight="normal"  style="display: block;"><tspan dy="0.3em" >[In-process calls / Java]</tspan></text></g><g id="v-7161"  label-idx="2" cursor="move" transform="matrix(1,0,0,1,1974.3846435546875,307.1000061035156)" style="cursor: default;"><rect joint-selector="rect" id="v-7167" fill="#ffffff" rx="3" ry="3" x="-4.547473508864641e-13" y="0" width="0" height="0"  display="none"></rect><text joint-selector="text" id="v-7166" fill="#000000" font-size="14" text-anchor="middle" text-vertical-anchor="middle" pointer-events="none"></text></g></g></g><!--z-index:29--><g   id="j_537"  style="opacity: 1;"><path fill="none" cursor="pointer" stroke="transparent" stroke-linecap="round" joint-selector="wrapper" id="v-7187" stroke-width="10" stroke-linejoin="round" d="M 1439 462 L 1439 553 C 1439 559.6666666666665 1442.3333333333333 562.9999999999999 1449 563 L 1909 563 C 1915.6666666666665 562.9999999999999 1922.3333333333333 562.9999999999999 1929 563 L 2389 563 C 2395.6666666666665 562.9999999999999 2399 566.3333333333333 2399 573 L 2399 719"></path><path fill="none" pointer-events="none" joint-selector="line" id="v-7186" stroke="#476177" stroke-width="2" stroke-linejoin="round" stroke-dasharray="" d="M 1439 462 L 1439 553 C 1439 559.6666666666665 1442.3333333333333 562.9999999999999 1449 563 L 1909 563 C 1915.6666666666665 562.9999999999999 1922.3333333333333 562.9999999999999 1929 563 L 2389 563 C 2395.6666666666665 562.9999999999999 2399 566.3333333333333 2399 573 L 2399 719" marker-end="url(#v-21867269473)"></path><g id="v-7176" ><g id="v-7177"  label-idx="0" cursor="move" transform="matrix(1,0,0,1,1932.464599609375,551.7000122070312)" style="cursor: default;"><rect joint-selector="rect" id="v-7181" fill="#ffffff" rx="3" ry="3" x="-61.43663024902344" y="-22.066665649414062" width="123.96854400634766" height="41.0444450378418" pointer-events="none"  style="display: block;"></rect><text joint-selector="text" id="v-7180" font-size="18px" xml:space="preserve" fill="#476177" text-anchor="middle" pointer-events="none" font-family="Tahoma, Verdana, Helvetica, Arial" font-weight="normal"  style="display: block;"><tspan dy="-0.3em" >Submits signed</tspan><tspan dy="1.2em" x="0" >transactions</tspan></text></g><g id="v-7178"  label-idx="1" cursor="move" transform="matrix(1,0,0,1,1932.464599609375,587.7999877929688)" style="cursor: default;"><rect joint-selector="rect" id="v-7183" fill="#ffffff" rx="3" ry="3" x="-65.53819274902344" y="-7.331110000610352" width="131.07638549804688" height="13.888888359069824"  pointer-events="none" style="display: block;"></rect><text joint-selector="text" id="v-7182" font-size="12.6px" xml:space="preserve" fill="#476177" text-anchor="middle" pointer-events="none" font-family="Tahoma, Verdana, Helvetica, Arial" font-weight="normal"  style="display: block;"><tspan dy="0.3em" >[In-process calls / Java]</tspan></text></g><g id="v-7179"  label-idx="2" cursor="move" transform="matrix(1,0,0,1,1936.5,594.0999755859375)" style="cursor: default;"><rect joint-selector="rect" id="v-7185" fill="#ffffff" rx="3" ry="3" x="0" y="0" width="0" height="0"  display="none"></rect><text joint-selector="text" id="v-7184" fill="#000000" font-size="14" text-anchor="middle" text-vertical-anchor="middle" pointer-events="none"></text></g></g></g><!--z-index:30--><g   id="j_538"  style="opacity: 1;"><path fill="none" cursor="pointer" stroke="transparent" stroke-linecap="round" joint-selector="wrapper" id="v-7205" stroke-width="10" stroke-linejoin="round" d="M 659 1080 L 1259 1080"></path><path fill="none" pointer-events="none" joint-selector="line" id="v-7204" stroke="#476177" stroke-width="2" stroke-linejoin="round" stroke-dasharray="" d="M 659 1080 L 1259 1080" marker-end="url(#v-21867269473)"></path><g id="v-7194" ><g id="v-7195"  label-idx="0" cursor="move" transform="matrix(1,0,0,1,959,1068.699951171875)" style="cursor: default;"><rect joint-selector="rect" id="v-7199" fill="#ffffff" rx="3" ry="3" x="-80.90277099609375" y="-22.066665649414062" width="162.9154510498047" height="43.82222366333008" pointer-events="none"  style="display: block;"></rect><text joint-selector="text" id="v-7198" font-size="18px" xml:space="preserve" fill="#476177" text-anchor="middle" pointer-events="none" font-family="Tahoma, Verdana, Helvetica, Arial" font-weight="normal"  style="display: block;"><tspan dy="-0.3em" >Provides discovered</tspan><tspan dy="1.2em" x="0" >peer endpoints</tspan></text></g><g id="v-7196"  label-idx="1" cursor="move" transform="matrix(1,0,0,1,959,1104.800048828125)" style="cursor: default;"><rect joint-selector="rect" id="v-7201" fill="#ffffff" rx="3" ry="3" x="-65.53819274902344" y="-7.331110000610352" width="131.07638549804688" height="13.888888359069824"  pointer-events="none" style="display: block;"></rect><text joint-selector="text" id="v-7200" font-size="12.6px" xml:space="preserve" fill="#476177" text-anchor="middle" pointer-events="none" font-family="Tahoma, Verdana, Helvetica, Arial" font-weight="normal"  style="display: block;"><tspan dy="0.3em" >[In-process calls / Java]</tspan></text></g><g id="v-7197"  label-idx="2" cursor="move" transform="matrix(1,0,0,1,949,1111.0999755859375)" style="cursor: default;"><rect joint-selector="rect" id="v-7203" fill="#ffffff" rx="3" ry="3" x="0" y="0" width="0" height="0"  display="none"></rect><text joint-selector="text" id="v-7202" fill="#000000" font-size="14" text-anchor="middle" text-vertical-anchor="middle" pointer-events="none"></text></g></g></g><!--z-index:31--><g   id="j_539"  style="opacity: 1;"><path fill="none" cursor="pointer" stroke="transparent" stroke-linecap="round" joint-selector="wrapper" id="v-7223" stroke-width="10" stroke-linejoin="round" d="M 1619 1080 L 1909 1080 C 1915.6666666666665 1080 1919 1076.6666666666665 1919 1070 L 1919 993 C 1919 986.3333333333333 1919 979.6666666666665 1919 973 L 1919 839 C 1919 832.3333333333333 1922.3333333333333 829 1929 829 L 2219 829"></path><path fill="none" pointer-events="none" joint-selector="line" id="v-7222" stroke="#476177" stroke-width="2" stroke-linejoin="round" stroke-dasharray="" d="M 1619 1080 L 1909 1080 C 1915.6666666666665 1080 1919 1076.6666666666665 1919 1070 L 1919 993 C 1919 986.3333333333333 1919 979.6666666666665 1919 973 L 1919 839 C 1919 832.3333333333333 1922.3333333333333 829 1929 829 L 2219 829" marker-end="url(#v-21867269473)"></path><g id="v-7212" ><g id="v-7213"  label-idx="0" cursor="move" transform="matrix(1,0,0,1,1919,949.2279663085938)" style="cursor: default;"><rect joint-selector="rect" id="v-7217" fill="#ffffff" rx="3" ry="3" x="-66.92707824707031" y="-22.066665649414062" width="134.97088623046875" height="41.0444450378418" pointer-events="none"  style="display: block;"></rect><text joint-selector="text" id="v-7216" font-size="18px" xml:space="preserve" fill="#476177" text-anchor="middle" pointer-events="none" font-family="Tahoma, Verdana, Helvetica, Arial" font-weight="normal"  style="display: block;"><tspan dy="-0.3em" >Gossips pending</tspan><tspan dy="1.2em" x="0" >transactions</tspan></text></g><g id="v-7214"  label-idx="1" cursor="move" transform="matrix(1,0,0,1,1919,985.3279418945312)" style="cursor: default;"><rect joint-selector="rect" id="v-7219" fill="#ffffff" rx="3" ry="3" x="-65.53819274902344" y="-7.331110000610352" width="131.07638549804688" height="13.888888359069824"  pointer-events="none" style="display: block;"></rect><text joint-selector="text" id="v-7218" font-size="12.6px" xml:space="preserve" fill="#476177" text-anchor="middle" pointer-events="none" font-family="Tahoma, Verdana, Helvetica, Arial" font-weight="normal"  style="display: block;"><tspan dy="0.3em" >[In-process calls / Java]</tspan></text></g><g id="v-7215"  label-idx="2" cursor="move" transform="matrix(1,0,0,1,1909,985.5999755859375)" style="cursor: default;"><rect joint-selector="rect" id="v-7221" fill="#ffffff" rx="3" ry="3" x="0" y="0" width="0" height="0"  display="none"></rect><text joint-selector="text" id="v-7220" fill="#000000" font-size="14" text-anchor="middle" text-vertical-anchor="middle" pointer-events="none"></text></g></g></g><!--z-index:32--><g   id="j_540"  style="opacity: 1;"><path fill="none" cursor="pointer" stroke="transparent" stroke-linecap="round" joint-selector="wrapper" id="v-7241" stroke-width="10" stroke-linejoin="round" d="M 1439 1190 L 1439 1239 C 1439 1245.7333333333331 1442.3333333333333 1249.0666666666666 1449 1249 L 1909 1249 C 1915.6666666666665 1249.0666666666666 1919 1249.0666666666666 1919 1249 L 1919 1249 C 1919 1249 1922.3333333333333 1249 1929 1249 L 2219 1249"></path><path fill="none" pointer-events="none" joint-selector="line" id="v-7240" stroke="#476177" stroke-width="2" stroke-linejoin="round" stroke-dasharray="" d="M 1439 1190 L 1439 1239 C 1439 1245.7333333333331 1442.3333333333333 1249.0666666666666 1449 1249 L 1909 1249 C 1915.6666666666665 1249.0666666666666 1919 1249.0666666666666 1919 1249 L 1919 1249 C 1919 1249 1922.3333333333333 1249 1929 1249 L 2219 1249" marker-end="url(#v-21867269473)"></path><g id="v-7230" ><g id="v-7231"  label-idx="0" cursor="move" transform="matrix(1,0,0,1,1813.4691162109375,1237.699951171875)" style="cursor: default;"><rect joint-selector="rect" id="v-7235" fill="#ffffff" rx="3" ry="3" x="-74.91319274902344" y="-22.066665649414062" width="150.93043518066406" height="41.0444450378418" pointer-events="none"  style="display: block;"></rect><text joint-selector="text" id="v-7234" font-size="18px" xml:space="preserve" fill="#476177" text-anchor="middle" pointer-events="none" font-family="Tahoma, Verdana, Helvetica, Arial" font-weight="normal"  style="display: block;"><tspan dy="-0.3em" >Delivers requested</tspan><tspan dy="1.2em" x="0" >blocks and state</tspan></text></g><g id="v-7232"  label-idx="1" cursor="move" transform="matrix(1,0,0,1,1813.4691162109375,1273.800048828125)" style="cursor: default;"><rect joint-selector="rect" id="v-7237" fill="#ffffff" rx="3" ry="3" x="-65.53819274902344" y="-7.331110000610352" width="131.07638549804688" height="13.888888359069824"  pointer-events="none" style="display: block;"></rect><text joint-selector="text" id="v-7236" font-size="12.6px" xml:space="preserve" fill="#476177" text-anchor="middle" pointer-events="none" font-family="Tahoma, Verdana, Helvetica, Arial" font-weight="normal"  style="display: block;"><tspan dy="0.3em" >[In-process calls / Java]</tspan></text></g><g id="v-7233"  label-idx="2" cursor="move" transform="matrix(1,0,0,1,1791.366455078125,1280.0999755859375)" style="cursor: default;"><rect joint-selector="rect" id="v-7239" fill="#ffffff" rx="3" ry="3" x="0" y="0" width="0" height="0"  display="none"></rect><text joint-selector="text" id="v-7238" fill="#000000" font-size="14" text-anchor="middle" text-vertical-anchor="middle" pointer-events="none"></text></g></g></g><!--z-index:33--><!--z-index:34--><!--z-index:35--><!--z-index:36--><!--z-index:37--><!--z-index:38--><!--z-index:39--><!--z-index:40--><!--z-index:41--><!--z-index:42--><!--z-index:43--><!--z-index:44--><!--z-index:45--><!--z-index:46--><!--z-index:47--><!--z-index:48--><!--z-index:49--><!--z-index:50--><!--z-index:51--><!--z-index:52--><!--z-index:53--><!--z-index:54--><!--z-index:55--><!--z-index:56--><!--z-index:57--><!--z-index:58--><!--z-index:59--><!--z-index:60--><!--z-index:61--><!--z-index:62--><!--z-index:63--><!--z-index:64--><!--z-index:65--></g><g  style="user-select: none;"></g><g ></g><g  display="none"></g></g></svg>